<svg xmlns="http://www.w3.org/2000/svg" width="77" height="77" viewBox="0 0 77 77">
    <g fill="none" fill-rule="evenodd" stroke-width="1.5">
        <path stroke="#538AAB" d="M59.25 8.75a8 8 0 1 1-16 0 8 8 0 0 1 16 0zM28.75 72.25a4 4 0 1 1-8 0 4 4 0 0 1 8 0zM75.75 33.25a4 4 0 1 1-8 0 4 4 0 0 1 8 0zM12.75 22.25a6 6 0 0 1-12 0 6 6 0 0 1 12 0zM14.75 56.25a4 4 0 1 1-8 0 4 4 0 0 1 8 0zM56.75 70.25a5 5 0 1 1-10 0 5 5 0 0 1 10 0zM48.75 16.25L37.708 39.377M43.23 44.37l24.955-9.313M48.12 66.819l-7.979-10.001M25.75 68.25l4-10.152M24.75 51.25l-10.326 3.418M11.513 25.889L26.783 42.1"/>
        <path stroke="#BDBDBD" d="M44.25 48.75c0 5.523-4.478 10-10 10s-10-4.477-10-10 4.478-10 10-10 10 4.477 10 10z"/>
    </g>
</svg>
