<svg xmlns="http://www.w3.org/2000/svg" width="85" height="60" viewBox="0 0 85 60">
    <g fill="none" fill-rule="evenodd" stroke-width="1.5">
        <path stroke="#538AAB" d="M75.612 13.865v4.053c0 4.984-4.077 9.062-9.062 9.062-4.984 0-9.06-4.078-9.06-9.062V9.812c0-4.985 4.076-9.062 9.06-9.062 4.985 0 9.062 4.077 9.062 9.062v4.053zM50.773 34.47c.194-.172.395-.338.597-.498 1.596-1.255 3.457-2.132 5.412-2.681l4.31-1.21 2.76-.775M68.98 29.364l2.557.717 4.31 1.21c1.956.549 3.817 1.426 5.413 2.68 1.37 1.079 2.616 2.476 2.616 3.999v8.374c0 3.384-2.768 6.153-6.153 6.153H62.019M63.853 29.306V26.98M68.98 29.364V26.98"/>
        <path stroke="#538AAB" d="M71.536 30.08c.064.452.1.919.1 1.397 0 4.018-2.383 7.277-5.323 7.277-2.937 0-5.318-3.258-5.318-7.277 0-.479.033-.945.098-1.396M57.49 9.765c1.66-1.794 3.978-3.745 6.154-3.248 1.732.396 2.12 2.054 3.975 2.909 1.473.678 3.678 1.008 7.823-1.36M27.61 13.865v4.053c0 4.984-4.078 9.062-9.063 9.062-4.984 0-9.062-4.078-9.062-9.062V9.812c0-4.985 4.079-9.062 9.063-9.062 4.984 0 9.062 4.077 9.062 9.062v4.053zM22.582 52.497H6.903C3.52 52.497.75 49.728.75 46.344V37.97c0-1.523 1.246-2.921 2.616-3.998 1.597-1.255 3.457-2.133 5.412-2.681l4.312-1.211 2.76-.774M20.977 29.364l2.557.717 4.31 1.21c1.956.549 3.817 1.426 5.412 2.68.174.138.347.28.514.426M15.85 29.306V26.98M20.977 29.364V26.98"/>
        <path stroke="#538AAB" d="M23.533 30.08c.064.452.098.919.098 1.397 0 4.018-2.38 7.277-5.32 7.277-2.938 0-5.32-3.258-5.32-7.277 0-.479.034-.945.1-1.396M9.485 9.765c1.661-1.794 3.98-3.745 6.156-3.248 1.732.396 2.118 2.054 3.975 2.909 1.473.678 3.678 1.008 7.823-1.36"/>
        <path stroke="#BDBDBD" d="M52.759 15.485v4.554c0 5.599-4.581 10.18-10.181 10.18-5.6 0-10.18-4.581-10.18-10.18V10.93c0-5.6 4.58-10.181 10.18-10.181s10.18 4.582 10.18 10.18v4.555zM45.308 32.897l2.872.806 4.844 1.36c2.196.615 4.286 1.601 6.08 3.011 1.54 1.211 2.939 2.781 2.939 4.492v9.408c0 3.802-3.11 6.913-6.913 6.913H29.496c-3.802 0-6.913-3.11-6.913-6.913v-9.408c0-1.71 1.4-3.28 2.94-4.492 1.794-1.41 3.883-2.396 6.08-3.012l4.844-1.359 3.1-.87M39.548 32.833V30.22M45.308 32.897V30.22"/>
        <path stroke="#BDBDBD" d="M48.18 33.703c.072.506.11 1.032.11 1.568 0 4.515-2.675 8.177-5.978 8.177-3.3 0-5.976-3.662-5.976-8.177 0-.536.038-1.062.11-1.568M32.398 10.878c1.866-2.016 4.47-4.208 6.916-3.65 1.945.445 2.38 2.308 4.465 3.269 1.655.762 4.133 1.133 8.79-1.527"/>
    </g>
</svg>
