<svg id="Layer_1" data-name="Layer 1" xmlns="http://www.w3.org/2000/svg" viewBox="0 0 230 230"><defs><style>.cls-1{fill:#fff;}.cls-2{fill:#1f5d7c;fill-rule:evenodd;}</style></defs><title>pavicon_bw</title><circle class="cls-1" cx="114.97" cy="122.28" r="102.06"/><path class="cls-2" d="M219.06,122a103.56,103.56,0,0,1-16,55.42,199,199,0,0,1,10.78,27.83,5.79,5.79,0,0,1-2.08,5.89,5.45,5.45,0,0,1-3.82.7c-10.74-3.5-19.74-6.35-27.3-9.12a104.07,104.07,0,0,1-164.73-48.8,43.5,43.5,0,0,1-1.18-9.72l.07,0a1,1,0,0,0-.07-.15,26.8,26.8,0,0,1,19-25.84c8.33-13.87,30.64-13.88,30.64-13.88,16-.34,33.3,8.33,33.3,8.33,18.38,6.94,29.48,6.59,29.48,6.59,24.33,0,45.09-16.23,45.09-36.25,0-7.75-3.76-14.93-9-20.82-15.4,3.82-36.18-3.67-39.22-9.88-2.54-5.18,21.22-19.69,33.66-16.73a.25.25,0,0,0,0,.08H158l-.33-.08c1.7-13.85,23.1-35.14,30.9-31,3.2,1.69,3.55,25.15-5.18,39.05A103.82,103.82,0,0,1,219.06,122Zm-91.57,13.87a4.17,4.17,0,1,0,4.16,4.16A4.16,4.16,0,0,0,127.49,135.84Zm-43.71,1.39s-23.93-13.88-42.84-14.92c-11.57-.64-21,9.63-21,21.51,0,0-.06.15-.17.39a37.74,37.74,0,0,0,1.33,7.69,98.53,98.53,0,0,0,153.52,48.47c-2.4-1-4.62-2-6.69-3-11.18,6.72-25.35,11.32-44.62,13-34,3-58.45-11.21-62.79-13.88l-.42-.24A1.91,1.91,0,1,1,62,193l.62.44c7.89,4.4,26.73,15.85,60.71,12.84,17.43-1.55,30.35-5.46,40.55-11-1.21-.69-2.35-1.4-3.44-2.15-.85-.58-1.7-1.22-2.53-1.91-11,4.13-24.27,6.45-40.83,6.77a112.68,112.68,0,0,1-71.45-23.59l-1.4-1.11A2.23,2.23,0,1,1,47,169.77l.32.41a112.79,112.79,0,0,0,71.46,23.59c14.3-.28,26-2.28,35.74-5.67a56.7,56.7,0,0,1-6.44-7.82,84.77,84.77,0,0,1-23.93,3.43c-46.84,0-63.89-16.83-76.14-26-.69-.52,0-2.43,0-2.43,1.91-2.77,4.51.35,4.51.35,11.8,8,26.87,23.59,71.63,23.94a79.19,79.19,0,0,0,21.66-2.8c-1.1-1.84-2.12-3.75-3-5.68q-2.53.15-5.1.15c-46.84,0-63.89-16.83-76.14-26-.69-.52,0-2.43,0-2.43,1.91-2.78,4.51.34,4.51.34,11.79,8,26.87,23.59,71.63,23.94,1.13,0,2.25,0,3.36-.05a53.73,53.73,0,0,1-2.41-7.94C133.2,158.86,114.27,156.59,83.78,137.23Zm95.88,7.87a55.11,55.11,0,0,1,6.11,5.74,84.68,84.68,0,0,0,19.76-51.08s1.05-4.16,3.47-.86a84.48,84.48,0,0,1-20.41,55.18c1,1.22,2,2.55,3.11,4,5.77-9.11,10.21-19.41,14.53-30.23l.34-1.26a2.19,2.19,0,0,1,2.82-1.24,1.9,1.9,0,0,1,1.35,2.5l-.35.7c-5,12.49-10.11,23.54-16.3,32.95.49.72,1,1.48,1.47,2.25,2.17-3.21,4.31-6.52,6.51-9.88l.23-.52a1.73,1.73,0,1,1,3,1.73l-.11.17c-2.5,4.12-5,8.1-7.54,11.92q1.23,2.08,2.47,4.39a98.55,98.55,0,0,0-10-113.36c5.35,11.18,10.91,26.4,11.27,41.21C202.1,129.45,185.69,140.53,179.66,145.1ZM151.07,30s-5.9-3-17.57-4.95l-.86-.12c-1.53-.09-2.2-1.36-2.11-2.89a2.64,2.64,0,0,1,2.72-2.68l.84.06a103.61,103.61,0,0,1,18.53,5.05l.54.33a2.66,2.66,0,0,1,1.14,3.65C153.66,29.88,152.47,30.69,151.07,30Zm-25.86-6.2-2.2-.27a2.7,2.7,0,1,1,.51-5.37l2.2.27a2.7,2.7,0,1,1-.51,5.37Zm-9.86-.39H115C60.61,22,16.49,67.56,16.49,122a2.78,2.78,0,0,1-5.55,0A104.06,104.06,0,0,1,115,17.9h.36a2.78,2.78,0,0,1,0,5.55Z"/></svg>