<svg xmlns="http://www.w3.org/2000/svg" xmlns:xlink="http://www.w3.org/1999/xlink" width="132" height="106" viewBox="0 0 132 106">
    <defs>
        <path id="a" d="M.63.899h129.73v84.99H.63z"/>
    </defs>
    <g fill="none" fill-rule="evenodd" transform="translate(1 10)">
        <mask id="b" fill="#fff">
            <use xlink:href="#a"/>
        </mask>
        <path fill="#575B64" d="M25.992 77.33v.852A3.711 3.711 0 0 0 29.7 81.89h72.033a3.71 3.71 0 0 0 3.705-3.707v-.852H25.992zm75.74 8.56H29.7c-4.25 0-7.707-3.458-7.707-7.708V75.33a2 2 0 0 1 2-2h83.445a2 2 0 0 1 2 2v2.852c0 4.25-3.456 7.707-7.705 7.707z" mask="url(#b)"/>
        <path fill="#575B64" d="M101.019 77.33a2 2 0 0 1-2-2V29.988H32.413V75.33a2 2 0 0 1-4 0V27.988a2 2 0 0 1 2-2h70.606a2 2 0 0 1 2 2V75.33a2 2 0 0 1-2 2" mask="url(#b)"/>
        <path fill="#575B64" d="M46.91 66.701h3.607V43.682H46.91v23.019zm5.608 4H44.91a2 2 0 0 1-2-2V41.682a2 2 0 0 1 2-2h7.608a2 2 0 0 1 2 2v27.019a2 2 0 0 1-2 2zM62.126 66.701h3.608V51.528h-3.608v15.173zm5.608 4h-7.608a2 2 0 0 1-2-2V49.528a2 2 0 0 1 2-2h7.608a2 2 0 0 1 2 2v19.173a2 2 0 0 1-2 2zM77.341 66.701h3.608V37.977h-3.608v28.724zm5.608 4h-7.608a2 2 0 0 1-2-2V35.977a2 2 0 0 1 2-2h7.608a2 2 0 0 1 2 2v32.724a2 2 0 0 1-2 2z" mask="url(#b)"/>
        <path fill="#575B64" d="M89.012 70.82H40.275a2 2 0 0 1 0-4h48.737a2 2 0 0 1 0 4M11.365 38.733h4.586v-4.586h-4.586v4.586zm6.586 4H9.365a2 2 0 0 1-2-2v-8.586a2 2 0 0 1 2-2h8.586a2 2 0 0 1 2 2v8.586a2 2 0 0 1-2 2zM36.855 9.486h4.586V4.899h-4.586v4.587zm6.586 4h-8.586a2 2 0 0 1-2-2V2.899a2 2 0 0 1 2-2h8.586a2 2 0 0 1 2 2v8.587a2 2 0 0 1-2 2z" mask="url(#b)"/>
        <path fill="#575B64" d="M46.126 29.05a2 2 0 0 1-1.839-1.213l-6.439-15.026a1.999 1.999 0 1 1 3.675-1.576l6.44 15.026a2 2 0 0 1-1.837 2.79M30.295 38.977h-11.54a2 2 0 0 1 0-4h11.54a2 2 0 0 1 0 4M115.207 38.733h4.586v-4.586h-4.586v4.586zm6.586 4h-8.586a2 2 0 0 1-2-2v-8.586a2 2 0 0 1 2-2h8.586a2 2 0 0 1 2 2v8.586a2 2 0 0 1-2 2zM89.716 9.486h4.587V4.899h-4.587v4.587zm6.587 4h-8.587a2 2 0 0 1-2-2V2.899a2 2 0 0 1 2-2h8.587a2 2 0 0 1 2 2v8.587a2 2 0 0 1-2 2z" mask="url(#b)"/>
        <path fill="#575B64" d="M85.031 29.05a2 2 0 0 1-1.837-2.789l6.44-15.026a1.999 1.999 0 1 1 3.675 1.576L86.87 27.837a2 2 0 0 1-1.839 1.213M112.401 38.977h-10.87a2 2 0 0 1 0-4h10.87a2 2 0 0 1 0 4" mask="url(#b)"/>
    </g>
</svg>
