<?xml version="1.0" encoding="utf-8"?>
<!-- Generator: Adobe Illustrator 23.0.1, SVG Export Plug-In . SVG Version: 6.00 Build 0)  -->
<svg version="1.1" xmlns="http://www.w3.org/2000/svg" xmlns:xlink="http://www.w3.org/1999/xlink" x="0px" y="0px"
	 viewBox="0 0 30 30" style="enable-background:new 0 0 30 30;" xml:space="preserve">
<style type="text/css">
	.st0{display:none;}
	.st1{display:inline;}
	.st2{fill:#FFFFFF;}
	.st3{fill:#454545;}
	.st4{fill:none;stroke:#538AAB;stroke-width:1.5;stroke-miterlimit:10;}
	.st5{fill:none;stroke:#BDBDBD;stroke-width:1.5;stroke-miterlimit:10;}
	.st6{fill:#3148D2;}
	.st7{fill-rule:evenodd;clip-rule:evenodd;fill:#FFFFFF;}
	.st8{fill:#003450;}
	.st9{fill:none;stroke:#FF0000;stroke-width:6;stroke-miterlimit:10;}
	.st10{fill:none;stroke:#FFFFFF;stroke-width:9;stroke-miterlimit:10;}
	.st11{fill-rule:evenodd;clip-rule:evenodd;fill:#003450;}
	.st12{clip-path:url(#SVGID_2_);}
	.st13{clip-path:url(#SVGID_4_);fill:#1F5D7C;}
	.st14{clip-path:url(#SVGID_6_);fill:none;stroke:#1F5D7C;stroke-miterlimit:10;}
	.st15{fill:none;stroke:#FFFFFF;stroke-miterlimit:10;}
	.st16{fill:none;stroke:#1F5D7C;stroke-miterlimit:10;}
	.st17{fill:#1F5D7C;}
	.st18{fill:none;stroke:#BDBDBD;stroke-miterlimit:10;}
	.st19{fill:none;stroke:#538AAB;stroke-miterlimit:10;}
	.st20{fill:none;stroke:#444444;stroke-miterlimit:10;}
	.st21{fill:none;}
</style>
<g id="bg" class="st0">
	<g class="st1">
		<circle cx="15" cy="15" r="15"/>
	</g>
	<g class="st1">
		<circle cx="45" cy="15" r="15"/>
	</g>
</g>
<g id="레이어_1">
	<g>
		<path class="st2" d="M26.7,14.54c0-1.42-1.16-2.58-2.59-2.58c-0.7,0-1.33,0.28-1.8,0.73c-1.76-1.16-4.15-1.9-6.8-1.99l1.45-4.55
			l3.91,0.92c0,0.02-0.01,0.04-0.01,0.06c0,1.16,0.95,2.11,2.12,2.11c1.17,0,2.12-0.95,2.12-2.11S24.16,5,22.99,5
			c-0.9,0-1.66,0.56-1.97,1.35L16.8,5.36c-0.18-0.04-0.37,0.06-0.43,0.24l-1.61,5.08c-2.77,0.03-5.27,0.78-7.12,1.97
			c-0.46-0.43-1.08-0.69-1.75-0.69c-1.43,0-2.59,1.16-2.59,2.58c0,0.95,0.52,1.77,1.28,2.21C4.53,17.02,4.5,17.3,4.5,17.59
			c0,3.81,4.69,6.91,10.45,6.91c5.76,0,10.45-3.1,10.45-6.91c0-0.27-0.03-0.53-0.07-0.79C26.14,16.36,26.7,15.52,26.7,14.54z"/>
		<g>
			<path class="st8" d="M18.74,20.35c0.14,0.14,0.14,0.37,0,0.51c-0.78,0.77-2,1.15-3.73,1.15c0,0-0.01,0-0.01,0c0,0-0.01,0-0.01,0
				c-1.73,0-2.95-0.38-3.73-1.15c-0.14-0.14-0.14-0.37,0-0.51c0.14-0.14,0.37-0.14,0.51,0c0.63,0.63,1.69,0.94,3.22,0.94
				c0,0,0.01,0,0.01,0c0,0,0.01,0,0.01,0c1.53,0,2.58-0.31,3.22-0.94C18.37,20.21,18.6,20.21,18.74,20.35z"/>
			<path class="st8" d="M12.99,16.31c0-0.85-0.69-1.54-1.54-1.54S9.9,15.46,9.9,16.31c0,0.85,0.69,1.54,1.54,1.54
				S12.99,17.15,12.99,16.31z"/>
			<path class="st8" d="M18.55,14.77c-0.85,0-1.54,0.69-1.54,1.54c0,0.85,0.69,1.54,1.54,1.54s1.54-0.69,1.54-1.54
				C20.1,15.46,19.41,14.77,18.55,14.77z"/>
		</g>
	</g>
	<g>
		<defs>
			<polygon id="SVGID_1_" points="99,-1434.27 89,-1429.27 89,-1439.27 			"/>
		</defs>
		<clipPath id="SVGID_2_">
			<use xlink:href="#SVGID_1_"  style="overflow:visible;"/>
		</clipPath>
		<g class="st12">
			<defs>
				<rect id="SVGID_3_" x="-366" y="-1788.27" width="1024" height="3653"/>
			</defs>
			<clipPath id="SVGID_4_">
				<use xlink:href="#SVGID_3_"  style="overflow:visible;"/>
			</clipPath>
		</g>
	</g>
	<g>
		<defs>
			<rect id="SVGID_5_" x="-366" y="-1788.27" width="1024" height="3653"/>
		</defs>
		<clipPath id="SVGID_6_">
			<use xlink:href="#SVGID_5_"  style="overflow:visible;"/>
		</clipPath>
	</g>
</g>
</svg>
