<svg xmlns="http://www.w3.org/2000/svg" width="132" height="106" viewBox="0 0 132 106">
    <g fill="#575B64" fill-rule="evenodd">
        <path d="M98.596 105.358H33.952a2 2 0 0 1-2-2V18.752a2 2 0 0 1 2-2h8.239a2 2 0 0 1 0 4h-6.24v80.606h60.645V20.752h-6.238a2 2 0 0 1 0-4h8.238a2 2 0 0 1 2 2v84.606a2 2 0 0 1-2 2"/>
        <path d="M43.623 21.03h45.301c-.911-3.98-4.481-6.959-8.734-6.959h-6.785a2 2 0 0 1-2-2v-2.1a5.137 5.137 0 0 0-5.132-5.132 5.136 5.136 0 0 0-5.13 5.131v2.101a2 2 0 0 1-2 2h-6.786c-4.253 0-7.823 2.98-8.734 6.96m47.525 4H41.397a2 2 0 0 1-2-2c0-7.147 5.815-12.96 12.96-12.96h4.786v-.1c0-5.036 4.096-9.132 9.13-9.132 5.036 0 9.132 4.096 9.132 9.131v.101h4.785c7.146 0 12.958 5.813 12.958 12.96a2 2 0 0 1-2 2M85.603 37.018H44.41a2 2 0 0 1 0-4h41.194a2 2 0 0 1 0 4M86.936 48.685H45.741a2 2 0 0 1 0-4h41.195a2 2 0 0 1 0 4M43.458 83.67a2 2 0 0 1-1.414-3.414l8.873-8.872a2 2 0 0 1 2.673-.141l5.168 4.183 11.09-12.511a2 2 0 0 1 2.718-.256l5.629 4.35 7.948-7.4a2.001 2.001 0 0 1 2.725 2.928l-9.189 8.556a2.002 2.002 0 0 1-2.586.119l-5.492-4.244L60.482 79.51a2 2 0 0 1-2.754.227l-5.255-4.253-7.601 7.6a1.99 1.99 0 0 1-1.414.586"/>
    </g>
</svg>
