<?xml version="1.0" encoding="utf-8"?>
<!-- Generator: Adobe Illustrator 23.0.1, SVG Export Plug-In . SVG Version: 6.00 Build 0)  -->
<svg version="1.1" xmlns="http://www.w3.org/2000/svg" xmlns:xlink="http://www.w3.org/1999/xlink" x="0px" y="0px"
	 viewBox="0 0 30 30" style="enable-background:new 0 0 30 30;" xml:space="preserve">
<style type="text/css">
	.st0{display:none;}
	.st1{display:inline;}
	.st2{fill:#FFFFFF;}
	.st3{fill:#454545;}
	.st4{fill:none;stroke:#538AAB;stroke-width:1.5;stroke-miterlimit:10;}
	.st5{fill:none;stroke:#BDBDBD;stroke-width:1.5;stroke-miterlimit:10;}
	.st6{fill:#3148D2;}
	.st7{fill-rule:evenodd;clip-rule:evenodd;fill:#FFFFFF;}
	.st8{fill:#003450;}
	.st9{fill:none;stroke:#FF0000;stroke-width:6;stroke-miterlimit:10;}
	.st10{fill:none;stroke:#FFFFFF;stroke-width:9;stroke-miterlimit:10;}
	.st11{fill-rule:evenodd;clip-rule:evenodd;fill:#003450;}
	.st12{clip-path:url(#SVGID_2_);}
	.st13{clip-path:url(#SVGID_4_);fill:#1F5D7C;}
	.st14{clip-path:url(#SVGID_6_);fill:none;stroke:#1F5D7C;stroke-miterlimit:10;}
	.st15{fill:none;stroke:#FFFFFF;stroke-miterlimit:10;}
	.st16{fill:none;stroke:#1F5D7C;stroke-miterlimit:10;}
	.st17{fill:#1F5D7C;}
	.st18{fill:none;stroke:#BDBDBD;stroke-miterlimit:10;}
	.st19{fill:none;stroke:#538AAB;stroke-miterlimit:10;}
	.st20{fill:none;stroke:#444444;stroke-miterlimit:10;}
	.st21{fill:none;}
</style>
<g id="bg" class="st0">
	<g class="st1">
		<circle cx="15" cy="15" r="15"/>
	</g>
</g>
<g id="레이어_1">
	<path id="Shape_2_" class="st8" d="M7.37,10.3C7.4,10.05,7.3,9.81,7.12,9.65L5.25,7.4V7.06h5.8l4.48,9.83l3.94-9.83H25V7.4
		l-1.6,1.53c-0.14,0.1-0.21,0.28-0.18,0.45v11.25c-0.03,0.17,0.04,0.34,0.18,0.45l1.56,1.53v0.34h-7.84V22.6l1.62-1.57
		c0.16-0.16,0.16-0.21,0.16-0.45v-9.09L14.4,22.9H13.8L8.57,11.49v7.64c-0.04,0.32,0.06,0.65,0.29,0.88l2.1,2.55v0.34H5v-0.34
		l2.1-2.55c0.22-0.23,0.33-0.56,0.27-0.88V10.3z"/>
	<g>
		<defs>
			<polygon id="SVGID_1_" points="69,-1464.27 59,-1459.27 59,-1469.27 			"/>
		</defs>
		<clipPath id="SVGID_2_">
			<use xlink:href="#SVGID_1_"  style="overflow:visible;"/>
		</clipPath>
		<g class="st12">
			<defs>
				<rect id="SVGID_3_" x="-396" y="-1818.27" width="1024" height="3653"/>
			</defs>
			<clipPath id="SVGID_4_">
				<use xlink:href="#SVGID_3_"  style="overflow:visible;"/>
			</clipPath>
		</g>
	</g>
	<g>
		<defs>
			<rect id="SVGID_5_" x="-396" y="-1818.27" width="1024" height="3653"/>
		</defs>
		<clipPath id="SVGID_6_">
			<use xlink:href="#SVGID_5_"  style="overflow:visible;"/>
		</clipPath>
	</g>
</g>
</svg>
