<svg xmlns="http://www.w3.org/2000/svg" xmlns:xlink="http://www.w3.org/1999/xlink" width="132" height="106" viewBox="0 0 132 106">
    <defs>
        <path id="a" d="M.376.793h17.36v21.734H.376z"/>
        <path id="c" d="M.41.793h17.36v21.734H.41z"/>
    </defs>
    <g fill="none" fill-rule="evenodd">
        <g transform="translate(37.138 2)">
            <mask id="b" fill="#fff">
                <use xlink:href="#a"/>
            </mask>
            <path fill="#575B64" d="M8.875 4.832c-2.447 0-4.438 1.98-4.438 4.414v4.826c0 2.435 1.99 4.415 4.438 4.415h.36c2.448 0 4.44-1.98 4.44-4.415V9.246c0-2.434-1.992-4.414-4.44-4.414h-.36zm.36 17.695h-.36c-4.686 0-8.5-3.793-8.5-8.455V9.246c0-4.661 3.814-8.454 8.5-8.454h.36c4.687 0 8.5 3.793 8.5 8.454v4.826c0 4.662-3.813 8.455-8.5 8.455z" mask="url(#b)"/>
        </g>
        <path fill="#575B64" d="M45.987 62.833H32.794c-2.484 0-4.506-2.062-4.506-4.598v-14.06a2.02 2.02 0 0 1-.108-.655V29.557c0-6.246 4.238-11.736 10.305-13.35a2.03 2.03 0 0 1 2.486 1.428 2.017 2.017 0 0 1-1.436 2.472c-4.294 1.144-7.294 5.03-7.294 9.45v13.308c.07.205.109.426.109.655v14.715c0 .303.204.559.444.559h13.193c.24 0 .444-.256.444-.559V38.41c0-.711.376-1.37.99-1.734a2.047 2.047 0 0 1 2.005-.044l15.773 8.458-18.202-16.258a2.015 2.015 0 0 1-.674-1.503v-4.216c0-1.116.91-2.02 2.03-2.02 1.122 0 2.031.904 2.031 2.02v3.315l19.74 17.631c.811.727.902 1.962.202 2.798l-2.16 2.576a2.041 2.041 0 0 1-2.525.485l-15.148-8.124v16.442c0 2.536-2.022 4.598-4.506 4.598"/>
        <path fill="#575B64" d="M51.92 103.65c-.036 0-.072 0-.109-.003l-16.416-.86a2.024 2.024 0 0 1-1.916-1.843l-3.455-39.958a2.021 2.021 0 0 1 1.85-2.184c1.118-.117 2.1.728 2.196 1.839l3.304 38.205 6.222.326-.904-.52a2.015 2.015 0 0 1-1.012-1.796l.865-35.66a2.025 2.025 0 0 1 2.078-1.971 2.024 2.024 0 0 1 1.982 2.067l-.836 34.465 7.167 4.126a2.012 2.012 0 0 1 .929 2.322 2.03 2.03 0 0 1-1.946 1.445"/>
        <g transform="translate(76.738 2)">
            <mask id="d" fill="#fff">
                <use xlink:href="#c"/>
            </mask>
            <path fill="#575B64" d="M8.911 4.832c-2.448 0-4.439 1.98-4.439 4.414v4.826c0 2.435 1.991 4.415 4.44 4.415h.358c2.448 0 4.44-1.98 4.44-4.415V9.246c0-2.434-1.992-4.414-4.44-4.414H8.91zm.359 17.695H8.91c-4.687 0-8.5-3.793-8.5-8.455V9.246C.41 4.585 4.224.792 8.91.792h.359c4.687 0 8.5 3.793 8.5 8.454v4.826c0 4.662-3.813 8.455-8.5 8.455z" mask="url(#d)"/>
        </g>
        <path fill="#575B64" d="M66.605 44.59a2.03 2.03 0 0 1-1.511-.67c-.75-.83-.68-2.107.154-2.853l16.39-14.64v-3.316c0-1.115.909-2.02 2.031-2.02 1.121 0 2.03.905 2.03 2.02v4.217a2.02 2.02 0 0 1-.673 1.503L67.96 44.073a2.028 2.028 0 0 1-1.356.517"/>
        <path fill="#575B64" d="M99.229 62.833H86.035c-2.484 0-4.506-2.062-4.506-4.598V41.793l-12.173 6.529a2.04 2.04 0 0 1-2.752-.82 2.016 2.016 0 0 1 .825-2.737l15.168-8.134a2.047 2.047 0 0 1 2.005.044c.613.364.989 1.023.989 1.734v19.826c0 .303.204.559.444.559h13.194c.24 0 .444-.256.444-.559V43.52c0-.227.039-.446.108-.65V29.557c0-4.42-3-8.306-7.294-9.45a2.017 2.017 0 0 1-1.436-2.472 2.028 2.028 0 0 1 2.486-1.429c6.067 1.615 10.306 7.105 10.306 13.351V43.52c0 .227-.038.445-.108.65v14.065c0 2.536-2.022 4.598-4.506 4.598"/>
        <path fill="#575B64" d="M80.104 103.65a2.028 2.028 0 0 1-1.946-1.445 2.012 2.012 0 0 1 .93-2.322l7.166-4.126-.837-34.465a2.024 2.024 0 0 1 1.982-2.067l.05-.001c1.098 0 2.003.872 2.028 1.971l.866 35.66a2.015 2.015 0 0 1-1.012 1.797l-.904.52 6.221-.326 3.305-38.206a2.01 2.01 0 0 1 2.198-1.838 2.021 2.021 0 0 1 1.848 2.185l-3.456 39.958a2.024 2.024 0 0 1-1.916 1.843l-16.415.86a1.943 1.943 0 0 1-.108.002"/>
    </g>
</svg>
