<svg xmlns="http://www.w3.org/2000/svg" width="132" height="106" viewBox="0 0 132 106">
    <g fill="#575B64" fill-rule="evenodd">
        <path d="M55.468 25.04c.432 0 .868.133 1.213.388.442.326.765.817.83 1.363.492 4.044 3.94 7.094 8.02 7.094 4.078 0 7.525-3.05 8.017-7.092a2.001 2.001 0 0 1 2.33-1.728c.232.003.37-.136.37-.312v-3.478a.32.32 0 0 0-.32-.318 2.045 2.045 0 0 1-1.607-.478c-.432-.38-.71-.923-.71-1.5v-1.354c0-4.455-3.625-8.081-8.08-8.081-4.457 0-8.082 3.626-8.082 8.08v1.36c0 .584-.254 1.14-.7 1.519a2.008 2.008 0 0 1-1.608.458c-.232.013-.355.138-.355.314v3.478a.32.32 0 0 0 .32.319c.118-.022.24-.032.362-.032M65.53 37.885c-5.545 0-10.308-3.77-11.682-9a4.327 4.327 0 0 1-3.063-4.132v-3.478a4.326 4.326 0 0 1 2.668-3.99c.18-6.506 5.529-11.741 12.077-11.741 6.55 0 11.9 5.24 12.075 11.75a4.328 4.328 0 0 1 2.642 3.98v3.479a4.328 4.328 0 0 1-3.034 4.124c-1.371 5.234-6.137 9.008-11.683 9.008"/>
        <path d="M83.903 57.846H47.131a2 2 0 0 1-2-2v-5.6c0-6.462 5.258-11.72 11.721-11.72h2.283V34.97a2 2 0 0 1 4 0v5.557a2 2 0 0 1-2 2h-4.283c-4.258 0-7.72 3.464-7.72 7.72v3.599h32.771v-3.6c0-4.255-3.464-7.72-7.723-7.72h-4.282a2 2 0 0 1-2-2V34.97a2 2 0 0 1 4 0v3.557h2.282c6.464 0 11.723 5.257 11.723 11.72v5.599a2 2 0 0 1-2 2"/>
        <path d="M65.517 50.426c-.45 0-.898-.151-1.268-.453l-7.784-6.381A2 2 0 1 1 59 40.499l6.516 5.34 6.517-5.34a1.999 1.999 0 1 1 2.536 3.093l-7.784 6.38c-.37.303-.82.454-1.27.454M22 96.163h19.673v-.712c0-2.35-1.91-4.26-4.259-4.26h-2.756a2 2 0 0 1-2-2v-2.884a2 2 0 0 1 1.045-2.513 4.517 4.517 0 0 0 2.599-3.532 1.999 1.999 0 0 1 1.73-1.74v-1.216a1.962 1.962 0 0 1-1.043-.48c-.433-.38-.653-.93-.653-1.507v-.873a4.495 4.495 0 0 0-4.49-4.49 4.496 4.496 0 0 0-4.491 4.49v.875a2.001 2.001 0 0 1-1.714 1.98v1.2c.356.03.691.161.996.384.445.327.687.828.754 1.376a4.513 4.513 0 0 0 2.598 3.533 1.999 1.999 0 0 1 1.028 2.56v2.836a2 2 0 0 1-2 2H26.26A4.265 4.265 0 0 0 22 95.451v.712zm21.673 4H20a2 2 0 0 1-2-2v-2.712c0-4.555 3.705-8.26 8.26-8.26h.757v-.507a8.578 8.578 0 0 1-3.273-4.444 3.5 3.5 0 0 1-2.103-3.204v-2.24c0-1.287.701-2.413 1.741-3.019.342-4.37 4.008-7.82 8.464-7.82 4.461 0 8.128 3.455 8.465 7.831a3.492 3.492 0 0 1 1.721 3.008v2.24a3.496 3.496 0 0 1-2.081 3.194 8.575 8.575 0 0 1-3.293 4.467v.493h.756c4.555 0 8.259 3.706 8.259 8.261v2.712a2 2 0 0 1-2 2zM55.68 96.163h19.675v-.712a4.265 4.265 0 0 0-4.26-4.26h-2.757a2 2 0 0 1-2-2v-2.884a2 2 0 0 1 1.045-2.513 4.52 4.52 0 0 0 2.599-3.532 1.999 1.999 0 0 1 1.73-1.74v-1.216a1.974 1.974 0 0 1-1.043-.482c-.432-.38-.653-.929-.653-1.505v-.873a4.495 4.495 0 0 0-4.49-4.49 4.496 4.496 0 0 0-4.49 4.49v.875a2.005 2.005 0 0 1-1.713 1.98v1.2c.354.03.689.161.993.384.446.327.688.827.755 1.376a4.513 4.513 0 0 0 2.598 3.533 2 2 0 0 1 1.029 2.56v2.836a2 2 0 0 1-2 2H59.94a4.265 4.265 0 0 0-4.261 4.261v.712zm21.675 4H53.68a2 2 0 0 1-2-2v-2.712c0-4.555 3.706-8.26 8.26-8.26h.758v-.507a8.58 8.58 0 0 1-3.274-4.444 3.499 3.499 0 0 1-2.101-3.204v-2.24c0-1.287.7-2.414 1.74-3.02.343-4.369 4.007-7.82 8.464-7.82 4.459 0 8.127 3.457 8.464 7.831a3.495 3.495 0 0 1 1.72 3.01v2.24a3.496 3.496 0 0 1-2.08 3.193 8.575 8.575 0 0 1-3.293 4.467v.493h.757c4.555 0 8.26 3.706 8.26 8.261v2.712a2 2 0 0 1-2 2zM89.36 96.163h19.674v-.712a4.265 4.265 0 0 0-4.26-4.26h-2.756a2 2 0 0 1-2-2v-2.884a2 2 0 0 1 1.046-2.513 4.517 4.517 0 0 0 2.597-3.532 2.003 2.003 0 0 1 1.732-1.74v-1.217a1.977 1.977 0 0 1-1.044-.482c-.43-.38-.653-.929-.653-1.504v-.873a4.495 4.495 0 0 0-4.489-4.49 4.497 4.497 0 0 0-4.492 4.49v.875a2.001 2.001 0 0 1-1.713 1.98v1.215a2.006 2.006 0 0 1 1.75 1.745 4.509 4.509 0 0 0 2.596 3.533 1.998 1.998 0 0 1 1.03 2.558v2.838a2 2 0 0 1-2 2H93.62a4.265 4.265 0 0 0-4.26 4.261v.712zm21.674 4H87.36a2 2 0 0 1-2-2v-2.712c0-4.555 3.705-8.26 8.26-8.26h.757v-.506a8.573 8.573 0 0 1-3.272-4.445 3.5 3.5 0 0 1-2.103-3.204v-2.24c0-1.287.7-2.414 1.741-3.02.342-4.369 4.007-7.82 8.464-7.82 4.46 0 8.126 3.456 8.464 7.831a3.492 3.492 0 0 1 1.722 3.01v2.24a3.496 3.496 0 0 1-2.083 3.194 8.575 8.575 0 0 1-3.292 4.466v.493h.756c4.555 0 8.26 3.706 8.26 8.261v2.712a2 2 0 0 1-2 2z"/>
        <path d="M65.517 69.1a2 2 0 0 1-2-2V56.01a2 2 0 0 1 4 0V67.1a2 2 0 0 1-2 2M35.637 70.688a2.002 2.002 0 0 1-1.518-3.302l11.749-13.697a2 2 0 0 1 3.037 2.603L37.157 69.99a1.996 1.996 0 0 1-1.52.698M95.395 69.772a1.988 1.988 0 0 1-1.395-.57l-12.263-11.97a2 2 0 1 1 2.794-2.861l12.261 11.97a2 2 0 0 1-1.397 3.43"/>
    </g>
</svg>
