<svg xmlns="http://www.w3.org/2000/svg" width="132" height="106" viewBox="0 0 132 106">
    <g fill="#575B64" fill-rule="evenodd">
        <path d="M73.7 100.08h-.09a7.632 7.632 0 0 1-5.406-2.312l-2.169-2.219a2 2 0 1 1 2.861-2.795l2.168 2.22a3.663 3.663 0 0 0 2.591 1.105c1.012-.029 1.914-.36 2.615-1.047a3.67 3.67 0 0 0 1.11-2.595 3.661 3.661 0 0 0-1.052-2.615 2 2 0 0 1 2.858-2.799 7.63 7.63 0 0 1 2.192 5.46 7.64 7.64 0 0 1-2.31 5.408 7.622 7.622 0 0 1-5.368 2.188"/>
        <path d="M82.082 92.398h-.088a7.622 7.622 0 0 1-5.406-2.312l-5.109-5.196a2 2 0 0 1 2.853-2.805l5.112 5.201a3.663 3.663 0 0 0 2.595 1.112 3.686 3.686 0 0 0 2.616-1.052 3.654 3.654 0 0 0 1.11-2.59 3.66 3.66 0 0 0-1.05-2.616 2 2 0 1 1 2.859-2.797 7.63 7.63 0 0 1 2.191 5.457 7.636 7.636 0 0 1-2.313 5.407 7.63 7.63 0 0 1-5.37 2.191"/>
        <path d="M90.211 84.451h-.088a7.627 7.627 0 0 1-5.408-2.312L70.19 67.286a2 2 0 0 1 2.86-2.797l14.525 14.854a3.658 3.658 0 0 0 2.593 1.108 3.604 3.604 0 0 0 2.616-1.05 3.657 3.657 0 0 0 1.109-2.592 3.665 3.665 0 0 0-1.05-2.615L78.315 59.341a2 2 0 0 1 2.86-2.797l14.527 14.853a7.635 7.635 0 0 1 2.191 5.456 7.636 7.636 0 0 1-2.312 5.408 7.628 7.628 0 0 1-5.37 2.19"/>
        <path d="M98.336 76.504l-.089-.001a7.629 7.629 0 0 1-5.409-2.313 2 2 0 0 1 2.861-2.795 3.665 3.665 0 0 0 2.593 1.109 3.737 3.737 0 0 0 2.616-1.05 3.694 3.694 0 0 0 .06-5.21L72.379 37.01a2 2 0 1 1 2.859-2.797l28.59 29.235c2.958 3.029 2.904 7.903-.122 10.866a7.63 7.63 0 0 1-5.37 2.19"/>
        <path d="M82.002 39.39c-5.224 0-10.443-2.017-14.375-6.037a2 2 0 0 1 2.859-2.797c6.208 6.349 16.423 6.463 22.772.256a1.999 1.999 0 1 1 2.796 2.859 20.034 20.034 0 0 1-14.052 5.72M38.04 71.962a7.665 7.665 0 0 1-5.494-2.306c-2.962-3.032-2.906-7.906.122-10.866l2.22-2.17a2 2 0 0 1 2.796 2.86l-2.219 2.17a3.689 3.689 0 0 0-.06 5.209 3.688 3.688 0 0 0 5.21.056 2 2 0 0 1 2.797 2.859 7.66 7.66 0 0 1-5.373 2.188"/>
        <path d="M45.795 80.434l-.09-.001a7.63 7.63 0 0 1-5.406-2.312 7.638 7.638 0 0 1-2.191-5.457 7.632 7.632 0 0 1 2.31-5.408 2 2 0 0 1 2.797 2.86 3.689 3.689 0 0 0-.057 5.209 3.662 3.662 0 0 0 2.593 1.108c.967-.017 1.912-.361 2.616-1.05a2 2 0 0 1 2.797 2.86 7.629 7.629 0 0 1-5.37 2.19"/>
        <path d="M53.74 88.56h-.089a7.628 7.628 0 0 1-5.406-2.313 7.634 7.634 0 0 1-2.19-5.457 7.634 7.634 0 0 1 2.312-5.409 2 2 0 0 1 2.796 2.862 3.655 3.655 0 0 0-1.109 2.592 3.658 3.658 0 0 0 1.051 2.616 3.654 3.654 0 0 0 2.591 1.109c1.008.046 1.911-.362 2.613-1.05a2.001 2.001 0 0 1 2.798 2.86 7.622 7.622 0 0 1-5.367 2.19"/>
        <path d="M61.687 96.68a7.67 7.67 0 0 1-5.493-2.303c-2.963-3.032-2.907-7.908.121-10.871a2 2 0 0 1 2.799 2.86 3.693 3.693 0 0 0-.063 5.213 3.69 3.69 0 0 0 5.21.056 2 2 0 0 1 2.796 2.86 7.664 7.664 0 0 1-5.37 2.185M46.8 65.664a2 2 0 0 1-1.397-3.431 3.653 3.653 0 0 0 1.107-2.59 3.653 3.653 0 0 0-1.05-2.617 3.654 3.654 0 0 0-2.591-1.108c-1.011-.025-1.913.361-2.614 1.05l-2.22 2.168a2 2 0 0 1-2.796-2.86l2.218-2.169c1.467-1.434 3.418-2.182 5.457-2.189a7.636 7.636 0 0 1 5.407 2.311 7.633 7.633 0 0 1 2.189 5.458 7.63 7.63 0 0 1-2.313 5.408 1.99 1.99 0 0 1-1.397.57"/>
        <path d="M55.093 73.605a2 2 0 0 1-1.399-3.429 3.69 3.69 0 0 0 .058-5.21 3.654 3.654 0 0 0-2.592-1.11c-.981-.055-1.912.361-2.616 1.05a2 2 0 0 1-2.797-2.86c1.468-1.435 3.424-2.255 5.459-2.19a7.633 7.633 0 0 1 5.408 2.314c2.958 3.027 2.904 7.901-.122 10.863a1.989 1.989 0 0 1-1.4.571"/>
        <path d="M63.04 81.727a2 2 0 0 1-1.397-3.431 3.65 3.65 0 0 0 1.106-2.587 3.652 3.652 0 0 0-1.05-2.616 3.653 3.653 0 0 0-2.592-1.11h-.042a3.66 3.66 0 0 0-2.574 1.052 2 2 0 0 1-2.797-2.86c1.467-1.435 3.397-2.19 5.458-2.191a7.632 7.632 0 0 1 5.408 2.313 7.632 7.632 0 0 1 2.19 5.458 7.621 7.621 0 0 1-2.314 5.403c-.388.38-.892.569-1.396.569"/>
        <path d="M70.985 89.856a2 2 0 0 1-1.398-3.43 3.69 3.69 0 0 0 .057-5.208 3.663 3.663 0 0 0-2.592-1.108h-.042c-.968 0-1.88.372-2.574 1.051a2 2 0 0 1-2.799-2.858 7.586 7.586 0 0 1 5.46-2.192 7.631 7.631 0 0 1 5.41 2.312c2.957 3.031 2.902 7.904-.124 10.863-.389.381-.894.57-1.398.57M41.099 71.24a2 2 0 0 1-1.398-3.43l6.185-6.048a2 2 0 0 1 2.796 2.86l-6.186 6.047c-.388.381-.893.57-1.397.57M49.121 79.442a2 2 0 0 1-1.398-3.43l6.183-6.047a2 2 0 0 1 2.797 2.86l-6.184 6.047c-.389.381-.894.57-1.398.57"/>
        <path d="M57.066 87.568a2 2 0 0 1-1.398-3.43l6.183-6.047a2 2 0 0 1 2.797 2.86l-6.184 6.047c-.388.381-.893.57-1.398.57M65.015 95.695a2 2 0 0 1-1.398-3.43l6.182-6.046a2 2 0 0 1 2.797 2.86l-6.183 6.046c-.39.381-.894.57-1.398.57M33.572 61.645c-.52 0-1.038-.2-1.43-.602l-8.296-8.484a22.773 22.773 0 0 1-6.53-16.28 22.766 22.766 0 0 1 6.895-16.129l7.764-7.592c8.671-8.48 22.48-8.731 31.44-.57l.083.08 4.165 4.26a2 2 0 0 1-2.86 2.796l-4.124-4.216c-7.394-6.696-18.763-6.477-25.907.508l-7.764 7.594a18.79 18.79 0 0 0-5.693 13.314 18.794 18.794 0 0 0 5.392 13.438l8.296 8.486a2 2 0 0 1-1.43 3.398"/>
        <path d="M98.817 62.768a2 2 0 0 1-1.398-3.43l9.678-9.464c6.698-7.394 6.478-18.765-.51-25.911l-7.595-7.765a18.79 18.79 0 0 0-13.314-5.691l-.216-.001c-4.973 0-9.66 1.91-13.22 5.393l-4.697 4.635-17.374 17.373a3.577 3.577 0 0 0 0 5.05 3.577 3.577 0 0 0 5.053 0L67.642 30.54a2 2 0 1 1 2.828 2.829L58.052 45.787c-2.952 2.952-7.756 2.954-10.71 0-2.952-2.954-2.952-7.757.001-10.708l17.383-17.383 4.712-4.651c4.383-4.285 10.15-6.582 16.285-6.537a22.769 22.769 0 0 1 16.13 6.893l7.593 7.765c8.482 8.674 8.732 22.486.57 31.444a3.133 3.133 0 0 1-.08.083l-9.72 9.505c-.389.38-.894.57-1.399.57"/>
    </g>
</svg>
