<?xml version="1.0" encoding="utf-8"?>
<!-- Generator: Adobe Illustrator 23.0.1, SVG Export Plug-In . SVG Version: 6.00 Build 0)  -->
<svg version="1.1" xmlns="http://www.w3.org/2000/svg" xmlns:xlink="http://www.w3.org/1999/xlink" x="0px" y="0px"
	 viewBox="0 0 30 30" style="enable-background:new 0 0 30 30;" xml:space="preserve">
<style type="text/css">
	.st0{display:none;}
	.st1{display:inline;}
	.st2{fill:#FFFFFF;}
	.st3{fill:#454545;}
	.st4{fill:none;stroke:#538AAB;stroke-width:1.5;stroke-miterlimit:10;}
	.st5{fill:none;stroke:#BDBDBD;stroke-width:1.5;stroke-miterlimit:10;}
	.st6{fill:#3148D2;}
	.st7{fill-rule:evenodd;clip-rule:evenodd;fill:#FFFFFF;}
	.st8{fill:#003450;}
	.st9{fill:none;stroke:#FF0000;stroke-width:6;stroke-miterlimit:10;}
	.st10{fill:none;stroke:#FFFFFF;stroke-width:9;stroke-miterlimit:10;}
	.st11{fill-rule:evenodd;clip-rule:evenodd;fill:#003450;}
	.st12{clip-path:url(#SVGID_2_);}
	.st13{clip-path:url(#SVGID_4_);fill:#1F5D7C;}
	.st14{clip-path:url(#SVGID_6_);fill:none;stroke:#1F5D7C;stroke-miterlimit:10;}
	.st15{fill:none;stroke:#FFFFFF;stroke-miterlimit:10;}
	.st16{fill:none;stroke:#1F5D7C;stroke-miterlimit:10;}
	.st17{fill:#1F5D7C;}
	.st18{fill:none;stroke:#BDBDBD;stroke-miterlimit:10;}
	.st19{fill:none;stroke:#538AAB;stroke-miterlimit:10;}
	.st20{fill:none;stroke:#444444;stroke-miterlimit:10;}
	.st21{fill:none;}
</style>
<g id="bg" class="st0">
	<g class="st1">
		<circle cx="15" cy="15" r="15"/>
	</g>
	<g class="st1">
		<circle cx="15" cy="45" r="15"/>
	</g>
	<g class="st1">
		<circle cx="45" cy="15" r="15"/>
	</g>
	<g class="st1">
		<circle cx="45" cy="45" r="15"/>
	</g>
</g>
<g id="레이어_1">
	<g id="Page-1_2_">
		<g id="Blue-Whale-Landing-page_2_" transform="translate(-141.000000, -635.000000)">
			<path id="Fill-1_1_" class="st7" d="M143.79,649.63l4.97,1.86l1.93,6.19c0.12,0.4,0.61,0.54,0.93,0.28l2.77-2.26
				c0.29-0.24,0.7-0.25,1.01-0.03l5,3.63c0.34,0.25,0.83,0.06,0.92-0.35l3.66-17.62c0.09-0.45-0.35-0.83-0.79-0.67l-20.42,7.88
				C143.28,648.73,143.29,649.44,143.79,649.63z M150.38,650.5l9.72-5.99c0.17-0.11,0.35,0.13,0.2,0.27l-8.02,7.46
				c-0.28,0.26-0.46,0.61-0.52,1l-0.27,2.03c-0.04,0.27-0.42,0.3-0.49,0.04l-1.05-3.69C149.83,651.18,150.01,650.73,150.38,650.5z"
				/>
		</g>
	</g>
	<g>
		<defs>
			<polygon id="SVGID_1_" points="99,-1314.27 89,-1309.27 89,-1319.27 			"/>
		</defs>
		<clipPath id="SVGID_2_">
			<use xlink:href="#SVGID_1_"  style="overflow:visible;"/>
		</clipPath>
		<g class="st12">
			<defs>
				<rect id="SVGID_3_" x="-366" y="-1668.27" width="1024" height="3653"/>
			</defs>
			<clipPath id="SVGID_4_">
				<use xlink:href="#SVGID_3_"  style="overflow:visible;"/>
			</clipPath>
		</g>
	</g>
	<g>
		<defs>
			<rect id="SVGID_5_" x="-366" y="-1668.27" width="1024" height="3653"/>
		</defs>
		<clipPath id="SVGID_6_">
			<use xlink:href="#SVGID_5_"  style="overflow:visible;"/>
		</clipPath>
	</g>
</g>
</svg>
