<?xml version="1.0" encoding="utf-8"?>
<!-- Generator: Adobe Illustrator 23.0.1, SVG Export Plug-In . SVG Version: 6.00 Build 0)  -->
<svg version="1.1" xmlns="http://www.w3.org/2000/svg" xmlns:xlink="http://www.w3.org/1999/xlink" x="0px" y="0px"
	 viewBox="0 0 30 30" style="enable-background:new 0 0 30 30;" xml:space="preserve">
<style type="text/css">
	.st0{display:none;}
	.st1{display:inline;}
	.st2{fill:#FFFFFF;}
	.st3{fill:#454545;}
	.st4{fill:none;stroke:#538AAB;stroke-width:1.5;stroke-miterlimit:10;}
	.st5{fill:none;stroke:#BDBDBD;stroke-width:1.5;stroke-miterlimit:10;}
	.st6{fill:#3148D2;}
	.st7{fill-rule:evenodd;clip-rule:evenodd;fill:#FFFFFF;}
	.st8{fill:#003450;}
	.st9{fill:none;stroke:#FF0000;stroke-width:6;stroke-miterlimit:10;}
	.st10{fill:none;stroke:#FFFFFF;stroke-width:9;stroke-miterlimit:10;}
	.st11{fill-rule:evenodd;clip-rule:evenodd;fill:#003450;}
	.st12{clip-path:url(#SVGID_2_);}
	.st13{clip-path:url(#SVGID_4_);fill:#1F5D7C;}
	.st14{clip-path:url(#SVGID_6_);fill:none;stroke:#1F5D7C;stroke-miterlimit:10;}
	.st15{fill:none;stroke:#FFFFFF;stroke-miterlimit:10;}
	.st16{fill:none;stroke:#1F5D7C;stroke-miterlimit:10;}
	.st17{fill:#1F5D7C;}
	.st18{fill:none;stroke:#BDBDBD;stroke-miterlimit:10;}
	.st19{fill:none;stroke:#538AAB;stroke-miterlimit:10;}
	.st20{fill:none;stroke:#444444;stroke-miterlimit:10;}
	.st21{fill:none;}
</style>
<g id="bg" class="st0">
	<g class="st1">
		<circle cx="15" cy="15" r="15"/>
	</g>
</g>
<g id="레이어_1">
	<g>
		<path class="st8" d="M8.46,13.67c-0.43,0-0.77,0.35-0.77,0.77c0,0.43,0.35,0.77,0.77,0.77c0.43,0,0.77-0.35,0.77-0.77
			C9.23,14.01,8.89,13.67,8.46,13.67z"/>
		<circle class="st8" cx="16.08" cy="14.42" r="0.83"/>
		<path class="st8" d="M22.98,6H6.57c-1.66,0-3,1.34-3,3v9.74c0,1.66,1.34,3,3,3h5.8l1.97,4.65c0,0,0.14,0.4,0.46,0.4c0,0,0,0,0,0
			c0.33,0,0.46-0.4,0.46-0.4l1.97-4.65h5.74c1.66,0,3-1.34,3-3V9C25.98,7.34,24.64,6,22.98,6z M10.61,14.61
			c-0.01,1.78-1.85,1.83-1.85,1.83c-0.71,0-1.11-0.47-1.11-0.47v0.32H6.3v-5.53c-0.01,0-0.01,0,0,0v0c0.08,0.01,1.34,0,1.34,0v2.11
			c0.32-0.54,1.23-0.53,1.23-0.53C10.86,12.53,10.61,14.61,10.61,14.61z M12.97,12.51v3.79h-1.31v-3.75c0-0.51-0.63-0.65-0.63-0.65
			v-1.32C13.12,10.66,12.97,12.51,12.97,12.51z M16.08,16.44c-1.22,0-2.2-0.91-2.2-2.03s0.98-2.03,2.2-2.03
			c1.22,0,2.2,0.91,2.2,2.03S17.3,16.44,16.08,16.44z M23.27,16.44c0,0,0.02,1.92-1.94,1.92h-0.59v-1.25h0.36
			c0,0,0.82,0.08,0.81-1.19c0,0-0.16,0.51-1.31,0.51c0,0-1.63-0.12-1.63-1.71v-0.6c0,0,0.04-1.65,1.83-1.78c0,0,0.71-0.08,1.14,0.51
			v-0.41h1.33V16.44z"/>
		<circle class="st8" cx="21.18" cy="14.42" r="0.81"/>
	</g>
	<g>
		<defs>
			<polygon id="SVGID_1_" points="69,-1524.27 59,-1519.27 59,-1529.27 			"/>
		</defs>
		<clipPath id="SVGID_2_">
			<use xlink:href="#SVGID_1_"  style="overflow:visible;"/>
		</clipPath>
		<g class="st12">
			<defs>
				<rect id="SVGID_3_" x="-396" y="-1878.27" width="1024" height="3653"/>
			</defs>
			<clipPath id="SVGID_4_">
				<use xlink:href="#SVGID_3_"  style="overflow:visible;"/>
			</clipPath>
		</g>
	</g>
	<g>
		<defs>
			<rect id="SVGID_5_" x="-396" y="-1878.27" width="1024" height="3653"/>
		</defs>
		<clipPath id="SVGID_6_">
			<use xlink:href="#SVGID_5_"  style="overflow:visible;"/>
		</clipPath>
	</g>
</g>
</svg>
