<?xml version="1.0" encoding="utf-8"?>
<!-- Generator: Adobe Illustrator 23.0.1, SVG Export Plug-In . SVG Version: 6.00 Build 0)  -->
<svg version="1.1" xmlns="http://www.w3.org/2000/svg" xmlns:xlink="http://www.w3.org/1999/xlink" x="0px" y="0px"
	 viewBox="0 0 30 30" style="enable-background:new 0 0 30 30;" xml:space="preserve">
<style type="text/css">
	.st0{display:none;}
	.st1{display:inline;}
	.st2{fill:#FFFFFF;}
	.st3{fill:#454545;}
	.st4{fill:none;stroke:#538AAB;stroke-width:1.5;stroke-miterlimit:10;}
	.st5{fill:none;stroke:#BDBDBD;stroke-width:1.5;stroke-miterlimit:10;}
	.st6{fill:#3148D2;}
	.st7{fill-rule:evenodd;clip-rule:evenodd;fill:#FFFFFF;}
	.st8{fill:#003450;}
	.st9{fill:none;stroke:#FF0000;stroke-width:6;stroke-miterlimit:10;}
	.st10{fill:none;stroke:#FFFFFF;stroke-width:9;stroke-miterlimit:10;}
	.st11{fill-rule:evenodd;clip-rule:evenodd;fill:#003450;}
	.st12{clip-path:url(#SVGID_2_);}
	.st13{clip-path:url(#SVGID_4_);fill:#1F5D7C;}
	.st14{clip-path:url(#SVGID_6_);fill:none;stroke:#1F5D7C;stroke-miterlimit:10;}
	.st15{fill:none;stroke:#FFFFFF;stroke-miterlimit:10;}
	.st16{fill:none;stroke:#1F5D7C;stroke-miterlimit:10;}
	.st17{fill:#1F5D7C;}
	.st18{fill:none;stroke:#BDBDBD;stroke-miterlimit:10;}
	.st19{fill:none;stroke:#538AAB;stroke-miterlimit:10;}
	.st20{fill:none;stroke:#444444;stroke-miterlimit:10;}
	.st21{fill:none;}
</style>
<g id="bg" class="st0">
	<g class="st1">
		<circle cx="15" cy="15" r="15"/>
	</g>
	<g class="st1">
		<circle cx="45" cy="15" r="15"/>
	</g>
</g>
<g id="레이어_1">
	<path class="st7" d="M24.44,6.99c-0.81,0.49-1.7,0.84-2.63,1.03c-0.77-0.85-1.87-1.34-3.02-1.34c-2.28,0-4.13,1.9-4.13,4.24
		c0,0.33,0.04,0.65,0.11,0.96c-3.44-0.18-6.48-1.86-8.53-4.43C5.88,8.11,5.68,8.85,5.69,9.59c0,1.47,0.73,2.77,1.84,3.53
		c-0.66-0.02-1.3-0.2-1.87-0.53v0.05c0,2.05,1.43,3.77,3.32,4.16C8.36,16.98,7.72,17,7.1,16.88c0.53,1.68,2.05,2.91,3.86,2.94
		c-1.72,1.39-3.93,2.02-6.12,1.76c1.88,1.24,4.09,1.9,6.34,1.9c7.61,0,11.77-6.46,11.77-12.07c0-0.18,0-0.37-0.01-0.55
		c0.81-0.6,1.51-1.35,2.06-2.19c-0.75,0.34-1.55,0.57-2.38,0.67C23.5,8.81,24.14,7.97,24.44,6.99"/>
	<g>
		<defs>
			<polygon id="SVGID_1_" points="99,-1374.27 89,-1369.27 89,-1379.27 			"/>
		</defs>
		<clipPath id="SVGID_2_">
			<use xlink:href="#SVGID_1_"  style="overflow:visible;"/>
		</clipPath>
		<g class="st12">
			<defs>
				<rect id="SVGID_3_" x="-366" y="-1728.27" width="1024" height="3653"/>
			</defs>
			<clipPath id="SVGID_4_">
				<use xlink:href="#SVGID_3_"  style="overflow:visible;"/>
			</clipPath>
		</g>
	</g>
	<g>
		<defs>
			<rect id="SVGID_5_" x="-366" y="-1728.27" width="1024" height="3653"/>
		</defs>
		<clipPath id="SVGID_6_">
			<use xlink:href="#SVGID_5_"  style="overflow:visible;"/>
		</clipPath>
	</g>
</g>
</svg>
