<svg xmlns="http://www.w3.org/2000/svg" xmlns:xlink="http://www.w3.org/1999/xlink" width="84" height="72" viewBox="0 0 84 72">
    <defs>
        <path id="a" d="M0 .794h8.98v13.099H0z"/>
        <path id="c" d="M.705.855H9.49v10.037H.705z"/>
        <path id="e" d="M.374.858H7.56V11H.374z"/>
        <path id="g" d="M.98.858h7.185V11H.98z"/>
        <path id="i" d="M.69.858h8.765V11H.69z"/>
    </defs>
    <g fill="none" fill-rule="evenodd">
        <g transform="translate(0 42.55)">
            <mask id="b" fill="#fff">
                <use xlink:href="#a"/>
            </mask>
            <path fill="#FFF" d="M4.126 11.483c.39 0 .714-.033.969-.1.255-.066.46-.157.613-.271a.908.908 0 0 0 .32-.408c.06-.157.089-.332.089-.526 0-.41-.19-.751-.57-1.023-.378-.272-1.03-.565-1.955-.88a14.681 14.681 0 0 1-1.21-.497 4.466 4.466 0 0 1-1.084-.706 3.379 3.379 0 0 1-.782-1.033C.314 5.634.214 5.142.214 4.562c0-.58.106-1.101.319-1.566.214-.465.516-.862.907-1.188a4.152 4.152 0 0 1 1.423-.752C3.42.88 4.049.794 4.748.794c.83 0 1.547.09 2.15.272.606.18 1.104.38 1.496.598l-.8 2.228a7.486 7.486 0 0 0-1.148-.48c-.421-.14-.927-.208-1.52-.208-.664 0-1.141.093-1.432.28-.29.187-.435.475-.435.86a1 1 0 0 0 .16.58c.106.158.258.3.453.426.196.127.42.242.676.345.255.102.536.208.844.316a18.82 18.82 0 0 1 1.672.716c.474.235.868.51 1.183.824a3 3 0 0 1 .702 1.106c.154.423.23.936.23 1.54 0 1.172-.402 2.08-1.207 2.726-.807.647-2.022.97-3.646.97a9.983 9.983 0 0 1-1.477-.1 9.38 9.38 0 0 1-1.164-.245 6.622 6.622 0 0 1-.872-.307A6.774 6.774 0 0 1 0 12.93l.782-2.245c.367.205.822.39 1.36.553.54.163 1.2.244 1.984.244" mask="url(#b)"/>
        </g>
        <path fill="#FFF" d="M10.936 56.19V42.566l2.65-.436v4.567a5.44 5.44 0 0 1 .684-.173c.278-.054.548-.081.81-.081.757 0 1.39.105 1.893.317.504.21.907.51 1.21.897a3.5 3.5 0 0 1 .64 1.377 7.82 7.82 0 0 1 .186 1.775v5.38h-2.65v-5.054c0-.87-.11-1.485-.328-1.848-.22-.362-.626-.543-1.219-.543-.237 0-.459.02-.667.063a7.124 7.124 0 0 0-.56.136v7.247h-2.649zM24.984 54.305c.261 0 .51-.006.747-.018.237-.011.427-.03.57-.054v-2.047a4.495 4.495 0 0 0-.48-.072 5.077 5.077 0 0 0-1.29.008 1.84 1.84 0 0 0-.578.172 1.005 1.005 0 0 0-.392.345.97.97 0 0 0-.14.543c0 .423.137.716.417.879.278.163.66.244 1.146.244m-.213-7.898c.782 0 1.434.09 1.956.27.522.182.94.442 1.254.78.314.338.536.749.666 1.232a6.16 6.16 0 0 1 .196 1.612v5.616c-.38.085-.907.185-1.583.3-.675.114-1.494.172-2.454.172a7.675 7.675 0 0 1-1.644-.163 3.555 3.555 0 0 1-1.272-.534 2.442 2.442 0 0 1-.818-.97c-.19-.398-.284-.888-.284-1.468 0-.554.11-1.026.33-1.413.218-.386.512-.694.88-.924a3.947 3.947 0 0 1 1.261-.498 6.998 6.998 0 0 1 1.476-.154c.344 0 .65.016.916.046.267.03.483.069.65.117v-.254c0-.458-.137-.826-.41-1.104-.272-.278-.747-.417-1.423-.417-.45 0-.895.033-1.334.099-.438.067-.817.16-1.137.282l-.338-2.175a9.942 9.942 0 0 1 1.334-.298c.272-.043.56-.08.862-.11.303-.03.608-.044.916-.044M36.88 49.051a19.49 19.49 0 0 0-.834-.189 5.032 5.032 0 0 0-1.032-.101c-.166 0-.364.016-.596.046-.23.03-.406.063-.524.099v7.284h-2.65v-9.023a15.656 15.656 0 0 1 1.68-.48 9.498 9.498 0 0 1 2.16-.227c.144 0 .316.01.517.028.202.018.403.042.605.073.2.029.403.066.605.108.2.042.373.094.515.154l-.445 2.228zM44.35 50.464a2.912 2.912 0 0 0-.116-.67 1.707 1.707 0 0 0-.302-.58 1.618 1.618 0 0 0-.516-.416c-.208-.109-.465-.163-.774-.163-.296 0-.55.051-.765.153-.213.104-.39.24-.533.408a1.841 1.841 0 0 0-.329.59c-.077.223-.133.45-.169.678h3.504zm-6.225 1.033c0-.846.127-1.586.383-2.22.254-.633.59-1.162 1.005-1.584a4.143 4.143 0 0 1 1.431-.96 4.4 4.4 0 0 1 1.663-.327c1.327 0 2.377.414 3.147 1.242.771.827 1.157 2.044 1.157 3.65 0 .157-.007.33-.018.516-.013.187-.024.353-.036.5h-6.01c.06.554.314.995.764 1.321.45.326 1.055.49 1.814.49a7.58 7.58 0 0 0 1.432-.137c.468-.09.85-.202 1.146-.335l.356 2.192a3.706 3.706 0 0 1-.569.218 7.582 7.582 0 0 1-.792.19c-.29.054-.6.1-.933.136a9.233 9.233 0 0 1-.996.054c-.842 0-1.573-.126-2.196-.38a4.27 4.27 0 0 1-1.547-1.042 4.172 4.172 0 0 1-.908-1.567 6.338 6.338 0 0 1-.293-1.957zM52.53 54.305c.261 0 .51-.006.747-.018.236-.011.427-.03.568-.054v-2.047a4.509 4.509 0 0 0-.479-.072 5.091 5.091 0 0 0-1.289.008 1.84 1.84 0 0 0-.578.172.998.998 0 0 0-.392.345.97.97 0 0 0-.14.543c0 .423.137.716.416.879.28.163.661.244 1.147.244m-.214-7.898c.783 0 1.435.09 1.957.27.522.182.94.442 1.253.78.315.338.536.749.667 1.232a6.16 6.16 0 0 1 .195 1.612v5.616c-.379.085-.906.185-1.582.3-.675.114-1.494.172-2.454.172a7.692 7.692 0 0 1-1.645-.163 3.57 3.57 0 0 1-1.272-.534 2.44 2.44 0 0 1-.817-.97c-.19-.398-.285-.888-.285-1.468 0-.554.11-1.026.33-1.413a2.57 2.57 0 0 1 .88-.924 3.947 3.947 0 0 1 1.262-.498 6.998 6.998 0 0 1 1.476-.154c.344 0 .65.016.916.046.267.03.482.069.648.117v-.254c0-.458-.135-.826-.408-1.104-.273-.278-.747-.417-1.423-.417-.45 0-.895.033-1.334.099-.438.067-.817.16-1.137.282l-.338-2.175a9.912 9.912 0 0 1 1.333-.298c.273-.043.56-.08.863-.11.302-.03.608-.044.915-.044M64.782 51.353c0-1.74-.628-2.61-1.885-2.61-.272 0-.542.037-.808.109a2.277 2.277 0 0 0-.65.272v4.91a7.058 7.058 0 0 0 1.156.09c.723 0 1.268-.253 1.636-.76.367-.508.551-1.178.551-2.011m2.703.072c0 .76-.109 1.449-.329 2.065a4.382 4.382 0 0 1-.95 1.577 4.193 4.193 0 0 1-1.53 1.005c-.605.235-1.292.353-2.063.353-.32 0-.655-.015-1.005-.045a19.79 19.79 0 0 1-1.03-.118 14.196 14.196 0 0 1-.97-.172 9.324 9.324 0 0 1-.818-.21V42.567l2.65-.436v4.747a4.69 4.69 0 0 1 1.956-.417c.663 0 1.25.119 1.76.354s.937.57 1.28 1.006c.344.434.605.957.783 1.567a7.3 7.3 0 0 1 .266 2.038M73.264 56.37c-.77-.012-1.395-.097-1.876-.253-.48-.157-.859-.378-1.138-.662a2.2 2.2 0 0 1-.569-1.032 5.666 5.666 0 0 1-.15-1.368v-10.49l2.648-.435v10.382c0 .241.02.46.055.652.035.193.103.356.205.49.1.132.245.24.435.324.19.085.445.14.764.163l-.374 2.23z"/>
        <g transform="translate(74 45.55)">
            <mask id="d" fill="#fff">
                <use xlink:href="#c"/>
            </mask>
            <path fill="#FFF" d="M6.93 4.913a2.912 2.912 0 0 0-.116-.67 1.707 1.707 0 0 0-.302-.58 1.618 1.618 0 0 0-.516-.416c-.208-.109-.465-.163-.774-.163-.296 0-.551.051-.765.153-.213.104-.39.24-.533.408a1.841 1.841 0 0 0-.33.59c-.076.223-.132.45-.168.678H6.93zM.705 5.946c0-.846.128-1.586.383-2.22.255-.633.59-1.162 1.005-1.584a4.143 4.143 0 0 1 1.43-.96A4.4 4.4 0 0 1 5.188.855c1.328 0 2.377.414 3.147 1.242.77.827 1.157 2.044 1.157 3.65 0 .157-.006.33-.018.516-.013.187-.024.353-.036.5H3.426c.06.554.315.995.765 1.321.45.326 1.055.49 1.814.49a7.58 7.58 0 0 0 1.432-.137c.468-.09.85-.202 1.146-.335l.356 2.192a3.706 3.706 0 0 1-.57.218 7.582 7.582 0 0 1-.791.19c-.29.054-.601.1-.933.136a9.228 9.228 0 0 1-.995.054c-.843 0-1.574-.126-2.197-.38A4.27 4.27 0 0 1 1.906 9.47a4.157 4.157 0 0 1-.907-1.567 6.309 6.309 0 0 1-.294-1.957z" mask="url(#d)"/>
        </g>
        <path fill="#FFF" d="M24.056 61.702a22.71 22.71 0 0 1-.27.752c-.12.317-.255.684-.408 1.1-.15.415-.32.873-.509 1.373a83.705 83.705 0 0 0-.572 1.571h3.517c-.19-.55-.37-1.075-.547-1.576-.177-.502-.345-.96-.503-1.376-.159-.416-.299-.782-.418-1.099a40.45 40.45 0 0 0-.29-.745zm3.325 9.812a57.007 57.007 0 0 0-.44-1.358c-.157-.465-.316-.928-.471-1.388h-4.802l-.466 1.392c-.158.465-.303.916-.437 1.354H17.89c.463-1.367.902-2.629 1.317-3.79.415-1.159.822-2.25 1.22-3.276.398-1.025.788-1.998 1.175-2.92.386-.92.785-1.82 1.2-2.7h2.625a99.679 99.679 0 0 1 2.38 5.62c.396 1.025.805 2.117 1.22 3.276.416 1.161.855 2.423 1.319 3.79H27.38z"/>
        <g transform="translate(31 60.55)">
            <mask id="f" fill="#fff">
                <use xlink:href="#e"/>
            </mask>
            <path fill="#FFF" d="M3.603 8.785c.485 0 .828-.049 1.03-.146.2-.098.301-.288.301-.568 0-.22-.13-.412-.39-.577-.26-.165-.657-.35-1.189-.558a11.883 11.883 0 0 1-1.127-.495 3.28 3.28 0 0 1-.86-.613 2.474 2.474 0 0 1-.55-.85c-.13-.33-.195-.726-.195-1.19 0-.903.325-1.617.975-2.143.651-.524 1.544-.787 2.68-.787a8.32 8.32 0 0 1 1.632.156c.52.104.934.217 1.242.338l-.46 2.124a9.6 9.6 0 0 0-1.004-.293 5.309 5.309 0 0 0-1.215-.127c-.828 0-1.242.237-1.242.713 0 .11.018.207.053.293a.62.62 0 0 0 .213.247c.106.08.252.165.435.257.183.093.417.195.7.305.58.222 1.06.44 1.438.655.378.215.677.447.895.697.22.25.373.527.462.832.09.304.133.657.133 1.06 0 .948-.346 1.667-1.038 2.154-.692.487-1.67.731-2.937.731-.828 0-1.516-.073-2.066-.22-.55-.146-.932-.268-1.145-.366L.818 8.2c.45.183.911.326 1.384.43.473.104.94.156 1.401.156" mask="url(#f)"/>
        </g>
        <g transform="translate(39 60.55)">
            <mask id="h" fill="#fff">
                <use xlink:href="#g"/>
            </mask>
            <path fill="#FFF" d="M4.209 8.785c.484 0 .827-.049 1.029-.146.2-.098.3-.288.3-.568 0-.22-.13-.412-.39-.577-.26-.165-.656-.35-1.188-.558a11.748 11.748 0 0 1-1.126-.495 3.302 3.302 0 0 1-.861-.613 2.474 2.474 0 0 1-.55-.85c-.13-.33-.194-.726-.194-1.19 0-.903.324-1.617.975-2.143.65-.524 1.543-.787 2.679-.787a8.32 8.32 0 0 1 1.632.156c.52.104.934.217 1.242.338l-.461 2.124a9.6 9.6 0 0 0-1.003-.293 5.309 5.309 0 0 0-1.215-.127c-.828 0-1.242.237-1.242.713 0 .11.018.207.054.293a.612.612 0 0 0 .213.247c.106.08.25.165.434.257.183.093.417.195.7.305.58.222 1.059.44 1.438.655.379.215.677.447.896.697.219.25.372.527.46.832.09.304.134.657.134 1.06 0 .948-.346 1.667-1.038 2.154-.691.487-1.671.731-2.936.731-.828 0-1.517-.073-2.067-.22-.55-.146-.932-.268-1.144-.366L1.423 8.2c.449.183.91.326 1.384.43.473.104.94.156 1.402.156" mask="url(#h)"/>
        </g>
        <g transform="translate(48 60.55)">
            <mask id="j" fill="#fff">
                <use xlink:href="#i"/>
            </mask>
            <path fill="#FFF" d="M6.9 4.96a2.916 2.916 0 0 0-.115-.678 1.617 1.617 0 0 0-.817-1.007c-.207-.11-.464-.165-.77-.165-.297 0-.55.052-.764.156a1.57 1.57 0 0 0-.532.412 1.826 1.826 0 0 0-.328.594 4.005 4.005 0 0 0-.169.687H6.9zM.69 6.002c0-.855.127-1.603.382-2.243.254-.64.588-1.174 1.003-1.602a4.15 4.15 0 0 1 1.428-.97 4.36 4.36 0 0 1 1.66-.33c1.323 0 2.37.42 3.14 1.254.768.836 1.152 2.066 1.152 3.69 0 .158-.006.332-.018.521-.012.19-.023.357-.035.503H3.405a1.82 1.82 0 0 0 .763 1.336c.45.33 1.052.495 1.81.495a7.46 7.46 0 0 0 1.428-.137 5.31 5.31 0 0 0 1.144-.339l.355 2.215a3.578 3.578 0 0 1-.568.22c-.237.072-.5.137-.79.192-.289.054-.599.1-.93.137a9.211 9.211 0 0 1-.994.055c-.84 0-1.57-.128-2.192-.385a4.255 4.255 0 0 1-1.543-1.052A4.21 4.21 0 0 1 .983 7.98 6.468 6.468 0 0 1 .69 6.003z" mask="url(#j)"/>
        </g>
        <path fill="#FFF" d="M59.407 59.268l2.644-.44v2.838h3.175v2.27h-3.175v3.387c0 .573.097 1.03.293 1.373.195.342.587.512 1.18.512.283 0 .575-.028.877-.083.302-.054.577-.13.825-.228l.373 2.123a7.18 7.18 0 0 1-1.064.348c-.39.097-.87.146-1.438.146-.72 0-1.319-.1-1.792-.302a2.811 2.811 0 0 1-1.135-.841 3.17 3.17 0 0 1-.594-1.31 7.926 7.926 0 0 1-.169-1.702v-8.091z"/>
        <path fill="#888" d="M21.866 7.951l7.952 4.771v5.565l-7.952 3.181z"/>
        <path fill="#717071" d="M21.866 21.468l7.952-3.181v7.952z"/>
        <path fill="#888" d="M21.866 21.468l7.952 4.771v5.566l-7.952 3.181z"/>
        <path fill="#717071" d="M21.866 34.986l7.952-3.181v7.952z"/>
        <path fill="#C8C9CA" d="M41.745 7.951l11.928 4.771 7.951-4.77L41.745 0z"/>
        <path fill="#888" d="M61.623 7.951l-7.951 4.771v5.565l7.95 3.181z"/>
        <path fill="#717071" d="M61.623 21.468l-7.951-3.181v7.952z"/>
        <path fill="#888" d="M61.623 21.468l-7.951 4.771v5.566l7.95 3.181z"/>
        <path fill="#717071" d="M61.623 34.986l-7.951-3.181v7.952z"/>
        <path fill="#FFF" d="M21.867 7.951l7.951 4.771 11.927-4.77V0z"/>
        <path fill="#C8C9CA" d="M41.745 13.517v7.95l11.927 4.772v-7.951zM41.745 27.034v7.951l11.927 4.77v-7.95z"/>
        <path fill="#FFF" d="M29.818 18.287v7.951l11.927-4.77v-7.952zM29.818 31.805v7.95l11.927-4.77v-7.951z"/>
    </g>
</svg>
