<?xml version="1.0" encoding="utf-8"?>
<!-- Generator: Adobe Illustrator 23.0.1, SVG Export Plug-In . SVG Version: 6.00 Build 0)  -->
<svg version="1.1" id="Layer_1" xmlns="http://www.w3.org/2000/svg" xmlns:xlink="http://www.w3.org/1999/xlink" x="0px" y="0px"
	 viewBox="0 0 138 55" style="enable-background:new 0 0 138 55;" xml:space="preserve">
<style type="text/css">
	.st0{fill:#FFFFFF;}
</style>
<g>
	<path class="st0" d="M137.02,0.05L120.5,6.17c-0.67,0.27-0.57,1.25,0.14,1.37l6.83,1.31c0.34,0.06,0.59,0.35,0.6,0.7l0.4,7.77
		c0,0.76,1.04,0.99,1.36,0.3l8.09-16.6C138.21,0.44,137.62-0.19,137.02,0.05z"/>
	<path class="st0" d="M61.77,33.37c0,1.03-0.84,1.87-1.87,1.87c-1.03,0-1.87-0.84-1.87-1.87c0-1.03,0.84-1.87,1.87-1.87
		C60.93,31.51,61.77,32.34,61.77,33.37z"/>
	<path class="st0" d="M54.99,33.87c0-0.59-0.48-1.07-1.07-1.07c-0.01,0-0.02,0-0.03,0c0,0-0.01,0-0.01-0.01h-11.1V12.68
		c0-0.06-0.01-0.12-0.03-0.17c-0.08-0.58-0.58-1.03-1.19-1.03c-0.66,0-1.2,0.54-1.2,1.2c0,0.01,0,0.01,0,0.02c0,0,0,0.01,0,0.01
		v20.8c0,0.82,0.45,1.43,1.28,1.43h12.31c0,0,0,0,0-0.01C54.53,34.91,54.99,34.45,54.99,33.87z"/>
	<path class="st0" d="M19.03,13.25c0-0.56-0.44-1.02-0.99-1.06c-0.01,0-0.02-0.01-0.04-0.01H1.07c-0.08,0-0.15,0.01-0.21,0.03
		C0.37,12.3,0,12.73,0,13.25c0,0.59,0.48,1.07,1.07,1.07c0.02,0,0.03,0,0.05,0c0.02,0,0.03,0,0.05,0h7.08v19.73c0,0,0,0.01,0,0.01
		c0,0.01,0,0.03,0,0.04c0,0.65,0.52,1.17,1.17,1.17c0.65,0,1.17-0.52,1.17-1.17c0-0.01,0-0.01,0-0.02c0-0.01,0-0.02,0-0.04V14.32
		h7.36c0,0,0.01,0,0.01,0c0,0,0.01,0,0.01,0h0.05c0.01,0,0.03-0.01,0.04-0.01C18.61,14.26,19.03,13.81,19.03,13.25z"/>
	<path class="st0" d="M26.66,12.24C26.66,12.24,26.66,12.24,26.66,12.24c0.18-0.33,0.52-0.55,0.91-0.55c0.57,0,0.95,0.47,1.17,0.96
		c3.07,7.4,8.18,20.99,8.18,20.99c0,0.01,0.01,0.01,0.01,0.02l0.01,0.03l0,0c0.05,0.13,0.08,0.27,0.08,0.41
		c0,0.64-0.52,1.16-1.16,1.16c-0.47,0-0.87-0.28-1.05-0.67l-0.01,0c0,0-3.24-8.47-6.89-18.36c-0.29-0.77-0.56,0-0.56,0
		C24.65,22.4,20,34.49,20,34.49c-0.16,0.45-0.58,0.77-1.09,0.77c-0.64,0-1.16-0.52-1.16-1.16c0-0.06,0.01-0.13,0.02-0.19l-0.01,0
		l0.02-0.04c0.03-0.16,0.1-0.3,0.18-0.43C17.96,33.44,26.32,12.7,26.66,12.24z"/>
	<path class="st0" d="M31.8,24.77C31.8,24.76,31.79,24.76,31.8,24.77l-1.01,0h-0.48h-4.42c0,0-0.01,0-0.01,0
		c-0.58,0.01-1.05,0.48-1.05,1.07c0,0.59,0.48,1.07,1.07,1.07c0.01,0,2.16,0.01,4.01,0.02c0.01,0,0.01,0,0.02,0
		c0.18,0,0.39,0,0.62,0c0.23,0,0.45,0,0.62,0c0.01,0,0.01,0,0.02,0c1.85,0,0.58-0.02,0.59-0.02c0.59,0,1.07-0.48,1.07-1.07
		C32.85,25.25,32.38,24.78,31.8,24.77z"/>
	<path class="st0" d="M121.63,13.25c0-0.56-0.44-1.02-0.99-1.06c-0.01,0-0.02-0.01-0.04-0.01h-16.93c-0.08,0-0.15,0.01-0.21,0.03
		c-0.49,0.1-0.86,0.53-0.86,1.05c0,0.59,0.48,1.07,1.07,1.07c0.02,0,0.03,0,0.05,0c0.02,0,0.03,0,0.05,0h7.08v19.73
		c0,0,0,0.01,0,0.01c0,0.01,0,0.03,0,0.04c0,0.65,0.52,1.17,1.17,1.17s1.17-0.52,1.17-1.17c0-0.01,0-0.01,0-0.02
		c0-0.01,0-0.02,0-0.04V14.32h7.36c0,0,0.01,0,0.01,0c0,0,0.01,0,0.01,0h0.05c0.01,0,0.03-0.01,0.04-0.01
		C121.21,14.26,121.63,13.81,121.63,13.25z"/>
	<path class="st0" d="M99.83,32.8C99.83,32.8,99.83,32.8,99.83,32.8l-10.97-0.01v-18.1h10.13c0,0,0.01-0.01,0.01-0.01
		c0.56-0.03,1-0.5,1-1.06c0-0.55-0.41-0.99-0.94-1.06c-0.01-0.01-0.01-0.01-0.02-0.01h-0.11c0,0,0,0,0,0c0,0,0,0,0,0H88.02
		c-0.89,0-1.5,0.66-1.5,1.4v19.68c0,0.55,0.47,1.28,1.14,1.33h12.13c0,0,0,0,0,0c0.59,0,1.07-0.48,1.07-1.07
		C100.87,33.29,100.41,32.82,99.83,32.8z"/>
	<path class="st0" d="M98.12,22.06C98.12,22.06,98.12,22.06,98.12,22.06l-10.43,0c-0.41,0-0.66,0.31-0.76,0.92v0.05
		c0,0.74,0.3,1.11,0.91,1.11c1.56,0,7.21,0.07,10.11,0.07c0.04,0,0.07-0.01,0.11-0.01c0.02,0,0.03,0.01,0.05,0.01
		c0.59,0,1.07-0.48,1.07-1.07C99.18,22.54,98.71,22.07,98.12,22.06z"/>
	<path class="st0" d="M68.87,12.7c0-0.01,0-0.01,0-0.02c0-0.65-0.52-1.17-1.17-1.17c-0.65,0-1.17,0.52-1.17,1.17
		c0,0.01,0,0.03,0,0.04c0,0,0,0.01,0,0.01v4.99v11.12v5.19c0,0,0,0.01,0,0.01c0,0.01,0,0.03,0,0.04c0,0.65,0.52,1.17,1.17,1.17
		c0.65,0,1.17-0.52,1.17-1.17c0-0.01,0-0.01,0-0.02c0-0.01,0-0.02,0-0.04v-5.19V17.73v-4.99C68.87,12.72,68.87,12.72,68.87,12.7z"/>
	<path class="st0" d="M81.47,12.95c-0.02-0.64-0.58-1.18-1.21-1.16c-0.27,0.01-0.52,0.11-0.71,0.28c-0.01,0-7.04,7.52-7.04,7.52l0,0
		c-0.28,0.34-0.3,0.53-0.29,0.83c0.02,0.64,0.58,1.18,1.21,1.16c0.27-0.01,0.52-0.11,0.71-0.28c0.01,0,7.02-7.49,7.04-7.51
		c0,0,0,0,0,0l0,0C81.45,13.44,81.47,13.25,81.47,12.95z"/>
	<path class="st0" d="M83.18,33.49c0-0.01,0-0.02-0.01-0.02C83.12,33.4,69,19.66,68.97,19.64c0,0,0,0,0,0l0,0
		c-0.31-0.27-0.49-0.29-0.77-0.29c-0.59,0-1.11,0.51-1.11,1.1c0,0.25,0.09,0.49,0.24,0.67c0,0.01,0,0.02,0.01,0.02
		c0.05,0.06,14.17,13.8,14.2,13.83l0,0h0c0.31,0.27,0.49,0.29,0.77,0.29c0.59,0,1.11-0.51,1.11-1.1
		C83.42,33.9,83.33,33.67,83.18,33.49z"/>
</g>
<g>
	<path class="st0" d="M12.17,47.18v0.84h-2.14v6.21H9.16v-6.21H7.02v-0.84H12.17z"/>
	<path class="st0" d="M17.17,47.18h0.97l2.3,7.05H19.5l-0.66-2.11h-2.49l-0.69,2.11h-0.88L17.17,47.18z M18.59,51.34l-0.98-3.12
		l-1.02,3.12H18.59z"/>
	<path class="st0" d="M24.23,47.18h0.86v6.21h3.19v0.84h-4.05V47.18z"/>
	<path class="st0" d="M32.24,47.18h4.61v0.86h-3.77v2.14h3.48V51h-3.48v2.39h3.83v0.84h-4.67V47.18z"/>
	<path class="st0" d="M41.08,47.18h1.01l3.17,5.7v-5.7h0.82v7.05h-0.97l-3.21-5.69v5.69h-0.82V47.18z"/>
	<path class="st0" d="M55.09,47.18v0.84h-2.14v6.21h-0.87v-6.21h-2.14v-0.84H55.09z"/>
	<path class="st0" d="M64.19,47.18h1.23l1.83,5.96l1.81-5.96h1.22v7.05h-0.82v-4.16c0-0.14,0-0.38,0.01-0.72
		c0.01-0.33,0.01-0.69,0.01-1.07l-1.81,5.95h-0.85l-1.83-5.95v0.22c0,0.17,0,0.44,0.01,0.79c0.01,0.35,0.01,0.61,0.01,0.78v4.16
		h-0.82V47.18z"/>
	<path class="st0" d="M76.44,47.18h0.97l2.3,7.05h-0.94l-0.66-2.11h-2.49l-0.69,2.11h-0.88L76.44,47.18z M77.87,51.34l-0.98-3.12
		l-1.02,3.12H77.87z"/>
	<path class="st0" d="M83.61,47.18h2.89c0.48,0,0.87,0.08,1.18,0.24c0.59,0.3,0.88,0.86,0.88,1.67c0,0.42-0.08,0.77-0.24,1.04
		s-0.38,0.49-0.66,0.65c0.25,0.11,0.43,0.26,0.56,0.44c0.13,0.18,0.19,0.48,0.21,0.89l0.03,0.95c0.01,0.27,0.03,0.47,0.06,0.6
		c0.05,0.22,0.14,0.37,0.28,0.43v0.16h-1.05c-0.03-0.06-0.05-0.14-0.07-0.24c-0.02-0.1-0.03-0.28-0.04-0.56l-0.05-1.18
		c-0.02-0.46-0.17-0.77-0.45-0.93c-0.16-0.09-0.41-0.13-0.75-0.13h-1.9v3.03h-0.86V47.18z M86.4,50.41c0.39,0,0.7-0.09,0.93-0.27
		c0.23-0.18,0.34-0.5,0.34-0.97c0-0.5-0.16-0.85-0.48-1.03c-0.17-0.1-0.4-0.14-0.69-0.14h-2.04v2.41H86.4z"/>
	<path class="st0" d="M92.91,47.18h0.84v3.45l3.18-3.45h1.2l-2.71,2.85l2.77,4.21h-1.13l-2.27-3.54l-1.04,1.09v2.46h-0.84V47.18z"/>
	<path class="st0" d="M101.9,47.18h4.61v0.86h-3.77v2.14h3.48V51h-3.48v2.39h3.83v0.84h-4.67V47.18z"/>
	<path class="st0" d="M115.35,47.18v0.84h-2.14v6.21h-0.87v-6.21h-2.14v-0.84H115.35z"/>
</g>
</svg>
