<svg xmlns="http://www.w3.org/2000/svg" xmlns:xlink="http://www.w3.org/1999/xlink" width="101" height="30" viewBox="0 0 101 30">
    <defs>
        <path id="a" d="M0 .657h15.563v16.292H0z"/>
        <path id="c" d="M.284.438H65.32V24H.284z"/>
    </defs>
    <g fill="none" fill-rule="evenodd">
        <g transform="translate(0 7)">
            <mask id="b" fill="#fff">
                <use xlink:href="#a"/>
            </mask>
            <path fill="#FFF" d="M.588 16.95v-3.034h10.038c.501 0 .933-.175 1.293-.528.36-.353.54-.774.54-1.264 0-.506-.18-.935-.54-1.287a1.83 1.83 0 0 0-1.293-.506l-5.69-.023c-1.363 0-2.522-.467-3.479-1.402C.485 7.956 0 6.816 0 5.482c0-1.333.485-2.466 1.457-3.4.957-.95 2.116-1.425 3.48-1.425h8.675v3.032H4.937c-.502 0-.932.177-1.293.53a1.704 1.704 0 0 0-.54 1.263c0 .506.18.935.54 1.287.36.353.791.529 1.293.529h5.689c1.364 0 2.531.467 3.503 1.402.955.95 1.434 2.09 1.434 3.424 0 1.332-.479 2.474-1.434 3.424-.972.934-2.139 1.401-3.503 1.401H.588z" mask="url(#b)"/>
        </g>
        <path fill="#FFF" d="M59.604 24v-2.979h10.32c.516 0 .96-.172 1.33-.519.37-.346.556-.76.556-1.241 0-.496-.185-.918-.556-1.264a1.932 1.932 0 0 0-1.33-.496l-5.848-.023c-1.403 0-2.595-.459-3.578-1.376C59.5 15.169 59 14.048 59 12.739c0-1.31.5-2.422 1.498-3.34C61.481 8.466 62.673 8 64.076 8h8.919v2.978h-8.92c-.516 0-.958.174-1.329.52-.37.346-.555.76-.555 1.24 0 .497.184.919.555 1.265.37.346.813.519 1.33.519h5.849c1.402 0 2.602.459 3.602 1.376.982.933 1.473 2.054 1.473 3.363 0 1.309-.491 2.43-1.473 3.363-1 .917-2.2 1.376-3.602 1.376h-10.32zM79 22V0h3.052v8.425c1.51-1.135 3.16-1.702 4.948-1.702 2.25 0 4.154.747 5.71 2.24 1.526 1.48 2.29 3.284 2.29 5.41V22h-3.052v-7.628c0-1.336-.47-2.47-1.41-3.405-.956-.933-2.135-1.4-3.538-1.4s-2.582.467-3.538 1.4c-.94.935-1.41 2.069-1.41 3.405V22H79zM25.989 20.42c1.383 0 2.573-.466 3.566-1.399.977-.932 1.466-2.058 1.466-3.379 0-1.32-.489-2.454-1.466-3.401-.993-.933-2.183-1.4-3.566-1.4-1.385 0-2.566.467-3.544 1.4-.978.947-1.466 2.08-1.466 3.401 0 1.32.488 2.447 1.466 3.38.978.932 2.16 1.399 3.544 1.399m0-12.421c2.211 0 4.1.747 5.664 2.239S34 13.533 34 15.642c0 2.096-.783 3.89-2.347 5.381-1.565 1.493-3.453 2.24-5.664 2.24-1.85 0-3.52-.582-5.01-1.744V30H18V15.642c0-2.11.782-3.91 2.347-5.403C21.912 8.747 23.792 8 25.99 8M49.989 21.021c1.383 0 2.573-.489 3.566-1.466.977-.978 1.466-2.16 1.466-3.543 0-1.385-.489-2.573-1.466-3.566-.993-.978-2.183-1.467-3.566-1.467-1.385 0-2.566.49-3.544 1.467-.978.993-1.467 2.181-1.467 3.566 0 1.384.49 2.565 1.467 3.543.978.977 2.16 1.466 3.544 1.466zM58 23.977h-2.979v-1.805C53.531 23.391 51.854 24 49.989 24c-2.197 0-4.077-.782-5.642-2.347C42.782 20.089 42 18.209 42 16.012c0-2.212.782-4.1 2.347-5.665C45.912 8.783 47.792 8 49.989 8c2.211 0 4.1.783 5.664 2.347C57.217 11.912 58 13.8 58 16.012v7.965z"/>
        <g transform="translate(35 6)">
            <mask id="d" fill="#fff">
                <use xlink:href="#c"/>
            </mask>
            <path fill="#FFF" d="M3.385 20.993V.438h-3.1v23.387H.42V24h64.9v-3.007z" mask="url(#d)"/>
        </g>
    </g>
</svg>
