<svg xmlns="http://www.w3.org/2000/svg" width="331" height="100" viewBox="0 0 331 100">
    <g fill="none" fill-rule="evenodd">
        <path fill="#044B65" d="M130.567 45.93c1.002 0 1.827-.085 2.48-.251.654-.168 1.179-.396 1.573-.685.394-.289.666-.63.82-1.026.151-.397.228-.838.228-1.324 0-1.036-.487-1.896-1.459-2.58-.971-.685-2.64-1.422-5.009-2.213a37.3 37.3 0 0 1-3.099-1.256 11.415 11.415 0 0 1-2.778-1.78 8.49 8.49 0 0 1-2.003-2.602c-.517-1.02-.775-2.259-.775-3.72 0-1.46.275-2.776.82-3.948a8.445 8.445 0 0 1 2.323-2.99c1.004-.821 2.218-1.452 3.644-1.894 1.427-.44 3.035-.661 4.828-.661 2.126 0 3.963.228 5.511.684 1.548.456 2.824.96 3.826 1.505l-2.05 5.615c-.88-.456-1.859-.86-2.937-1.208-1.078-.35-2.377-.526-3.894-.526-1.7 0-2.923.236-3.667.707-.744.472-1.116 1.195-1.116 2.168 0 .579.138 1.066.41 1.462.273.396.661.752 1.161 1.073.5.319 1.077.608 1.732.865.652.26 1.372.525 2.163.8 1.639.609 3.067 1.21 4.282 1.803 1.214.592 2.223 1.286 3.028 2.076a7.537 7.537 0 0 1 1.798 2.785c.395 1.064.593 2.36.593 3.88 0 2.952-1.032 5.242-3.096 6.869-2.066 1.63-5.178 2.442-9.337 2.442-1.399 0-2.659-.083-3.781-.25a24.87 24.87 0 0 1-2.984-.615 17.341 17.341 0 0 1-2.231-.777A16.503 16.503 0 0 1 120 49.58l2.004-5.66c.94.518 2.102.982 3.484 1.393 1.38.411 3.074.616 5.079.616M148 51V17.083L154.564 16v11.367c.44-.15 1.005-.294 1.695-.43.69-.134 1.359-.202 2.004-.202 1.88 0 3.444.264 4.693.79 1.247.525 2.246 1.27 2.995 2.232.75.962 1.277 2.106 1.586 3.427.309 1.324.463 2.796.463 4.42V51h-6.564V38.416c0-2.166-.271-3.698-.816-4.6-.544-.901-1.549-1.353-3.017-1.353-.588 0-1.138.052-1.651.158-.515.105-.977.218-1.388.338V51H148zM183.42 46.782c.646 0 1.265-.016 1.854-.046a12.73 12.73 0 0 0 1.414-.136v-5.127c-.267-.06-.662-.121-1.194-.182a12.66 12.66 0 0 0-3.201.023 4.464 4.464 0 0 0-1.434.431 2.47 2.47 0 0 0-.97.862c-.238.362-.355.817-.355 1.362 0 1.059.346 1.791 1.037 2.2.692.41 1.641.613 2.85.613M182.888 27c1.944 0 3.562.227 4.857.681 1.295.453 2.332 1.103 3.113 1.95.778.846 1.331 1.876 1.655 3.085.325 1.21.486 2.558.486 4.038V50.82c-.942.211-2.252.46-3.929.747-1.679.288-3.71.433-6.093.433-1.501 0-2.863-.137-4.084-.41-1.221-.271-2.274-.717-3.157-1.338a6.082 6.082 0 0 1-2.03-2.427c-.472-.998-.707-2.224-.707-3.674 0-1.392.272-2.571.816-3.54a6.39 6.39 0 0 1 2.186-2.314c.912-.574 1.957-.99 3.134-1.247 1.177-.257 2.4-.387 3.666-.387.854 0 1.611.038 2.273.114.663.076 1.2.175 1.613.296v-.637c0-1.149-.34-2.07-1.016-2.766-.678-.696-1.855-1.045-3.532-1.045-1.12 0-2.222.084-3.312.25-1.09.167-2.03.401-2.826.704l-.84-5.445a24.002 24.002 0 0 1 3.312-.749c.677-.106 1.391-.195 2.142-.272a22.976 22.976 0 0 1 2.273-.113M212.904 33.657a45.745 45.745 0 0 0-2.062-.488c-.79-.17-1.638-.257-2.543-.257-.41 0-.899.04-1.47.117-.57.077-1.002.163-1.294.255V52H199V28.815c1.17-.434 2.551-.845 4.145-1.233 1.594-.388 3.37-.582 5.33-.582.35 0 .774.024 1.272.071a24.908 24.908 0 0 1 2.982.465c.496.11.92.24 1.271.397l-1.096 5.724zM232.587 37.108a7.058 7.058 0 0 0-.29-1.67 4.204 4.204 0 0 0-.757-1.443 4.04 4.04 0 0 0-1.293-1.038c-.518-.271-1.165-.406-1.936-.406-.742 0-1.38.128-1.914.383a4 4 0 0 0-1.338 1.015c-.355.422-.63.91-.822 1.467a9.72 9.72 0 0 0-.425 1.692h8.775zM217 39.68c0-2.105.317-3.949.957-5.528.637-1.578 1.477-2.896 2.516-3.948a10.46 10.46 0 0 1 3.585-2.393 11.095 11.095 0 0 1 4.164-.811c3.324 0 5.952 1.03 7.883 3.09 1.929 2.061 2.895 5.094 2.895 9.094 0 .39-.016.82-.046 1.286-.029.467-.06.88-.088 1.241h-15.054c.15 1.385.787 2.482 1.916 3.294 1.128.813 2.643 1.219 4.543 1.219 1.217 0 2.41-.112 3.585-.339 1.173-.225 2.13-.503 2.871-.834l.892 5.46c-.357.18-.832.36-1.426.542-.593.18-1.255.338-1.981.475-.729.135-1.507.247-2.338.338-.833.09-1.663.134-2.493.134-2.11 0-3.943-.316-5.5-.947-1.558-.632-2.851-1.496-3.876-2.596-1.023-1.097-1.781-2.398-2.271-3.902-.49-1.505-.734-3.13-.734-4.875zM253.42 46.782c.645 0 1.264-.016 1.853-.046.588-.03 1.06-.076 1.414-.136v-5.127a12.26 12.26 0 0 0-1.193-.182 12.627 12.627 0 0 0-3.2.023 4.473 4.473 0 0 0-1.436.431 2.479 2.479 0 0 0-.97.862c-.237.362-.355.817-.355 1.362 0 1.059.346 1.791 1.039 2.2.69.41 1.641.613 2.848.613M252.888 27c1.945 0 3.562.227 4.86.681 1.293.453 2.33 1.103 3.11 1.95.78.846 1.334 1.876 1.658 3.085.323 1.21.484 2.558.484 4.038V50.82c-.942.211-2.252.46-3.93.747-1.677.288-3.708.433-6.092.433-1.5 0-2.863-.137-4.083-.41-1.222-.271-2.276-.717-3.159-1.338a6.093 6.093 0 0 1-2.031-2.427c-.47-.998-.705-2.224-.705-3.674 0-1.392.272-2.571.815-3.54a6.402 6.402 0 0 1 2.186-2.314c.912-.574 1.957-.99 3.136-1.247 1.175-.257 2.4-.387 3.664-.387.854 0 1.611.038 2.273.114.665.076 1.2.175 1.613.296v-.637c0-1.149-.339-2.07-1.015-2.766-.678-.696-1.855-1.045-3.533-1.045-1.12 0-2.222.084-3.312.25-1.09.167-2.03.401-2.826.704l-.84-5.445a24.128 24.128 0 0 1 3.312-.749c.678-.106 1.391-.195 2.143-.272.751-.075 1.508-.113 2.272-.113M284.16 39.225c0-4.38-1.588-6.57-4.768-6.57-.69 0-1.37.091-2.048.273-.674.184-1.22.412-1.64.684v12.365c.329.062.748.115 1.26.16.51.046 1.063.068 1.665.068 1.828 0 3.208-.638 4.138-1.916.929-1.278 1.394-2.966 1.394-5.064m6.839.182c0 1.916-.278 3.652-.832 5.202-.555 1.551-1.357 2.875-2.407 3.969-1.051 1.096-2.34 1.939-3.87 2.532-1.529.594-3.27.89-5.218.89-.81 0-1.658-.038-2.542-.115a47.626 47.626 0 0 1-2.61-.294 35.944 35.944 0 0 1-2.451-.436 25.27 25.27 0 0 1-2.07-.524V17.094L275.704 16v11.954a11.818 11.818 0 0 1 4.948-1.05c1.68 0 3.165.297 4.453.89a8.776 8.776 0 0 1 3.241 2.533c.87 1.096 1.529 2.41 1.978 3.947.451 1.537.676 3.248.676 5.133M305.091 52c-1.877-.03-3.399-.245-4.567-.641-1.17-.397-2.093-.953-2.77-1.671-.68-.718-1.14-1.589-1.386-2.612-.247-1.022-.368-2.175-.368-3.457V17.1L302.45 16v26.244c0 .61.043 1.161.131 1.649.086.489.251.901.498 1.237.244.335.598.612 1.06.824.462.214 1.083.352 1.861.413L305.091 52zM324.587 37.108a7.126 7.126 0 0 0-.29-1.67 4.207 4.207 0 0 0-.757-1.443 4.035 4.035 0 0 0-1.291-1.038c-.52-.271-1.166-.406-1.938-.406-.742 0-1.38.128-1.914.383-.535.256-.98.595-1.336 1.015-.357.422-.633.91-.824 1.467a9.715 9.715 0 0 0-.423 1.692h8.773zM309 39.68c0-2.105.319-3.949.958-5.528.636-1.578 1.476-2.896 2.515-3.948a10.479 10.479 0 0 1 3.586-2.393 11.088 11.088 0 0 1 4.163-.811c3.325 0 5.953 1.03 7.883 3.09 1.93 2.061 2.895 5.094 2.895 9.094 0 .39-.015.82-.045 1.286-.03.467-.06.88-.09 1.241h-15.051c.149 1.385.785 2.482 1.914 3.294 1.128.813 2.643 1.219 4.543 1.219 1.217 0 2.412-.112 3.585-.339 1.173-.225 2.13-.503 2.873-.834l.89 5.46c-.357.18-.83.36-1.425.542a18.62 18.62 0 0 1-1.982.475c-.727.135-1.506.247-2.338.338a23.41 23.41 0 0 1-2.493.134c-2.109 0-3.942-.316-5.5-.947-1.558-.632-2.851-1.496-3.874-2.596-1.025-1.097-1.783-2.398-2.272-3.902-.49-1.505-.735-3.13-.735-4.875zM135.84 71.25a57.615 57.615 0 0 1-.695 1.897c-.307.8-.655 1.725-1.044 2.773-.39 1.048-.827 2.202-1.309 3.463a200.74 200.74 0 0 0-1.47 3.966h9.033c-.483-1.387-.95-2.714-1.405-3.98a139.831 139.831 0 0 0-1.29-3.468c-.408-1.048-.766-1.972-1.075-2.77-.307-.8-.555-1.426-.744-1.88zM144.386 96a138.58 138.58 0 0 0-1.135-3.425l-1.208-3.501h-12.337l-1.201 3.51c-.401 1.175-.773 2.313-1.118 3.416H120a574.026 574.026 0 0 1 3.384-9.558 330.353 330.353 0 0 1 3.132-8.266c1.02-2.585 2.027-5.04 3.018-7.365A163.92 163.92 0 0 1 132.62 64h6.74a247.134 247.134 0 0 1 6.115 14.176 347.019 347.019 0 0 1 3.136 8.266A585.035 585.035 0 0 1 152 96h-7.615zM162.089 90.322c1.214 0 2.072-.125 2.577-.377.505-.248.756-.735.756-1.454 0-.564-.326-1.056-.979-1.478-.651-.424-1.645-.899-2.977-1.432a29.136 29.136 0 0 1-2.822-1.267 8.287 8.287 0 0 1-2.155-1.572 6.405 6.405 0 0 1-1.379-2.183c-.326-.845-.488-1.86-.488-3.051 0-2.314.815-4.145 2.444-5.491 1.63-1.345 3.866-2.017 6.711-2.017 1.422 0 2.785.133 4.09.399 1.303.266 2.339.555 3.111.868l-1.156 5.443a23.047 23.047 0 0 0-2.511-.75c-.904-.22-1.918-.329-3.045-.329-2.074 0-3.11.61-3.11 1.83 0 .281.044.533.132.751.09.22.267.432.535.633.266.206.63.425 1.087.662.46.237 1.045.495 1.756.779 1.452.57 2.653 1.13 3.6 1.68.95.553 1.697 1.15 2.245 1.788.547.64.934 1.35 1.156 2.132.222.78.333 1.687.333 2.716 0 2.435-.867 4.277-2.6 5.526-1.735 1.248-4.186 1.872-7.356 1.872-2.075 0-3.8-.188-5.178-.563-1.377-.376-2.333-.687-2.866-.939l1.11-5.678c1.127.468 2.282.836 3.468 1.103a16.03 16.03 0 0 0 3.51.399M184.088 90.322c1.216 0 2.074-.125 2.578-.377.504-.248.756-.735.756-1.454 0-.564-.327-1.056-.978-1.478-.651-.424-1.645-.899-2.977-1.432a28.985 28.985 0 0 1-2.822-1.267 8.317 8.317 0 0 1-2.156-1.572 6.402 6.402 0 0 1-1.378-2.183c-.327-.845-.488-1.86-.488-3.051 0-2.314.814-4.145 2.444-5.491 1.63-1.345 3.865-2.017 6.71-2.017 1.423 0 2.785.133 4.09.399 1.302.266 2.339.555 3.11.868l-1.155 5.443a23.044 23.044 0 0 0-2.51-.75c-.904-.22-1.92-.329-3.046-.329-2.073 0-3.11.61-3.11 1.83 0 .281.045.533.133.751.09.22.266.432.533.633.266.206.63.425 1.088.662a20.16 20.16 0 0 0 1.756.779c1.453.57 2.652 1.13 3.6 1.68.948.553 1.696 1.15 2.244 1.788a5.58 5.58 0 0 1 1.156 2.132c.223.78.334 1.687.334 2.716 0 2.435-.867 4.277-2.6 5.526-1.734 1.248-4.185 1.872-7.355 1.872-2.075 0-3.8-.188-5.179-.563-1.377-.376-2.331-.687-2.866-.939l1.111-5.678c1.125.468 2.282.836 3.466 1.103 1.185.265 2.355.399 3.511.399M213.587 80.513a7.533 7.533 0 0 0-.29-1.738 4.43 4.43 0 0 0-.757-1.502 4.077 4.077 0 0 0-1.29-1.078c-.522-.283-1.166-.423-1.939-.423-.74 0-1.378.135-1.914.398-.533.266-.98.619-1.336 1.058a4.795 4.795 0 0 0-.824 1.523c-.193.58-.334 1.167-.423 1.762h8.773zM198 83.188c0-2.189.318-4.107.957-5.75.638-1.643 1.477-3.01 2.517-4.107a10.433 10.433 0 0 1 3.585-2.488 10.73 10.73 0 0 1 4.164-.843c3.324 0 5.952 1.071 7.882 3.214 1.93 2.144 2.895 5.297 2.895 9.457 0 .407-.015.853-.044 1.338a87.2 87.2 0 0 1-.09 1.29h-15.052c.149 1.44.786 2.583 1.915 3.426 1.127.846 2.642 1.268 4.542 1.268 1.217 0 2.412-.118 3.586-.352 1.172-.235 2.13-.524 2.872-.869l.89 5.68c-.357.188-.83.376-1.424.563-.595.188-1.256.352-1.983.493-.728.14-1.507.257-2.336.352-.833.094-1.665.14-2.494.14-2.11 0-3.943-.328-5.501-.985-1.558-.657-2.85-1.556-3.874-2.699-1.024-1.14-1.783-2.495-2.273-4.06-.49-1.564-.734-3.254-.734-5.068zM225 65.108L231.832 64v7.158h8.205v5.725h-8.205v8.543c0 1.448.252 2.602.756 3.463.504.863 1.52 1.295 3.049 1.295.732 0 1.49-.07 2.27-.21.777-.138 1.489-.33 2.13-.576l.963 5.356c-.825.339-1.742.631-2.75.877-1.009.247-2.248.369-3.714.369-1.866 0-3.408-.253-4.63-.761-1.223-.507-2.201-1.217-2.935-2.124-.733-.907-1.244-2.01-1.536-3.302-.29-1.293-.435-2.725-.435-4.294V65.11zM0 20l20 12v14L0 54z"/>
        <path fill="#033345" d="M0 54l20-8v20z"/>
        <path fill="#044B65" d="M0 54l20 12v14L0 88z"/>
        <path fill="#033345" d="M0 88l20-8v20z"/>
        <path fill="#00786F" d="M50 20l30 12 20-12L50 0z"/>
        <path fill="#044B65" d="M100 20L80 32v14l20 8z"/>
        <path fill="#033345" d="M100 54l-20-8v20z"/>
        <path fill="#044B65" d="M100 54L80 66v14l20 8z"/>
        <path fill="#033345" d="M100 88l-20-8v20z"/>
        <path fill="#38A89D" d="M0 20l20 12 30-12V0z"/>
        <path fill="#00786F" d="M50 34v20l30 12V46zM50 68v20.001L80 100V80.001z"/>
        <path fill="#38A89D" d="M20 46v20l30-12V34zM20 80v20l30-12V68z"/>
    </g>
</svg>
